<?xml version="1.0" standalone="no"?><!DOCTYPE svg PUBLIC "-//W3C//DTD SVG 1.1//EN" "http://www.w3.org/Graphics/SVG/1.1/DTD/svg11.dtd"><svg t="1740814740276" class="icon" viewBox="0 0 1420 1024" version="1.1" xmlns="http://www.w3.org/2000/svg" p-id="4197" xmlns:xlink="http://www.w3.org/1999/xlink" width="277.34375" height="200"><path d="M1206.56929 1016.633806V809.950968H872.381935a79.211355 79.211355 0 0 1-79.211354-79.178323V285.894194a79.277419 79.277419 0 0 1 79.211354-79.244388h334.154323V0H189.935484v206.649806h334.154322a79.277419 79.277419 0 0 1 79.211355 79.244388v444.878451a79.211355 79.211355 0 0 1-79.211355 79.178323H189.935484v206.682838h1016.633806z" fill="#6C5FEA" p-id="4198"></path><path d="M1206.56929 809.950968h189.935484V206.649806h-189.935484z" fill="#F9D11F" p-id="4199"></path><path d="M793.203613 285.894194v444.878451a79.178323 79.178323 0 0 0 79.178322 79.178323h334.187355V206.682839H872.381935a79.211355 79.211355 0 0 0-79.178322 79.211355" fill="#41398C" p-id="4200"></path><path d="M0 809.950968h189.935484V206.649806H0z" fill="#F9D11F" p-id="4201"></path><path d="M603.268129 730.772645V285.894194a79.211355 79.211355 0 0 0-79.178323-79.211355H189.935484V809.950968h334.187355a79.178323 79.178323 0 0 0 79.178322-79.178323" fill="#41398C" p-id="4202"></path><path d="M1011.051355 907.726452c0-18.498065 14.996645-33.527742 33.527742-33.527742h78.187355a33.49471 33.49471 0 0 1 0 67.055484h-78.187355a33.527742 33.527742 0 0 1-33.527742-33.527742M251.375484 907.726452c0-18.498065 15.029677-33.527742 33.527742-33.527742h78.187355a33.527742 33.527742 0 0 1 0 67.055484H284.903226c-18.498065 0-33.527742-15.029677-33.527742-33.527742M504.600774 907.726452c0-18.498065 14.996645-33.527742 33.527742-33.527742h78.187355a33.49471 33.49471 0 0 1 0 67.055484h-78.187355a33.527742 33.527742 0 0 1-33.527742-33.527742M757.826065 907.726452c0-18.498065 14.996645-33.527742 33.527741-33.527742h78.187355a33.49471 33.49471 0 0 1 0 67.055484h-78.187355a33.527742 33.527742 0 0 1-33.527741-33.527742M1011.051355 103.324903c0-18.498065 14.996645-33.49471 33.527742-33.494709h78.187355a33.49471 33.49471 0 0 1 0 67.055483h-78.187355a33.49471 33.49471 0 0 1-33.527742-33.560774M251.375484 103.324903c0-18.498065 15.029677-33.49471 33.527742-33.494709h78.187355a33.527742 33.527742 0 0 1 0 67.055483H284.903226c-18.498065 0-33.527742-15.029677-33.527742-33.560774M504.600774 103.324903c0-18.498065 14.996645-33.49471 33.527742-33.494709h78.187355a33.49471 33.49471 0 0 1 0 67.055483h-78.187355a33.49471 33.49471 0 0 1-33.527742-33.560774M757.826065 103.324903c0-18.498065 14.996645-33.49471 33.527741-33.494709h78.187355a33.49471 33.49471 0 0 1 0 67.055483h-78.187355a33.49471 33.49471 0 0 1-33.527741-33.560774" fill="#FFFFFF" p-id="4203"></path></svg>