<?xml version="1.0" standalone="no"?><!DOCTYPE svg PUBLIC "-//W3C//DTD SVG 1.1//EN" "http://www.w3.org/Graphics/SVG/1.1/DTD/svg11.dtd"><svg t="1741699496227" class="icon" viewBox="0 0 1024 1024" version="1.1" xmlns="http://www.w3.org/2000/svg" p-id="6336" xmlns:xlink="http://www.w3.org/1999/xlink" width="200" height="200"><path d="M945 814.42H131.057c-28.553 0-51.7-23.147-51.7-51.7V160.222H945V814.42z" fill="#FFFFFF" p-id="6337"></path><path d="M945 775.275H130.615c-28.875 0-52.282-18.84-52.282-42.081V248.725H945v526.55z" fill="#7353BA" p-id="6338"></path><path d="M512 512m-185 0a185 185 0 1 0 370 0 185 185 0 1 0-370 0Z" fill="#FFFFFF" p-id="6339"></path><path d="M884.119 912H174.555v-97.58H945v36.699C945 884.742 917.742 912 884.119 912zM903.864 199l-824.507 7v-30.145c0-30.05 23.942-54.411 53.475-54.411l771.032-7c22.719 0 41.136 18.739 41.136 41.855v0.846C945 180.261 926.583 199 903.864 199z" fill="#F52F57" p-id="6340"></path><path d="M898.47 97H139c-41.355 0-75 33.645-75 75v29.565a15 15 0 0 0-0.667 4.435c0 1.543 0.233 3.033 0.667 4.435v555.45c0 35.033 28.501 63.535 63.535 63.535h0.49c8.284 0 15-6.716 15-15s-6.716-15-15-15h-0.49C109.043 799.42 94 784.376 94 765.885V221h804.47c33.928 0 61.53-27.602 61.53-61.53v-0.94C960 124.602 932.397 97 898.47 97z m-612.692 30H352v64h-66.222v-64z m-30 64h-66.222v-64h66.222v64zM382 127h66.222v64H382v-64z m96.222 0h66.222v64h-66.222v-64z m96.222 0h66.223v64h-66.223v-64z m96.223 0h66.222v64h-66.222v-64z m96.222 0h66.223v64h-66.223v-64zM94 172c0-24.813 20.187-45 45-45h20.556v64H94v-19z m836-12.53c0 17.386-14.145 31.53-31.53 31.53h-35.358v-64h35.358c17.386 0 31.53 14.144 31.53 31.53v0.94z" fill="#2F195F" p-id="6341"></path><path d="M945 240.953c-8.284 0-15 6.716-15 15V272c0 8.284 6.716 15 15 15s15-6.716 15-15v-16.047c0-8.285-6.716-15-15-15zM945 304.996c-8.284 0-15 6.716-15 15V799.42H174.556c-8.284 0-15 6.716-15 15V897H79c-8.284 0-15 6.716-15 15s6.716 15 15 15h806c41.355 0 75-33.645 75-75V319.996c0-8.284-6.716-15-15-15zM382 829.42h66.222V897H382v-67.58zM352 897h-66.222v-67.58H352V897z m126.222-67.58h66.222V897h-66.222v-67.58z m96.222 0h66.223V897h-66.223v-67.58z m96.223 0h66.222V897h-66.222v-67.58z m96.222 0h66.223V897h-66.223v-67.58z m-577.333 0h66.222V897h-66.222v-67.58zM885 897h-21.889v-67.58H930V852c0 24.813-20.187 45-45 45z" fill="#2F195F" p-id="6342"></path><path d="M631.031 512c0 65.739-53.292 119.031-119.031 119.031S392.969 577.739 392.969 512 446.261 392.969 512 392.969c18.284 0 35.605 4.122 51.085 11.489" fill="#FFFFFF" p-id="6343"></path><path d="M599.611 455.877c2.866 4.462 7.699 6.896 12.635 6.896 2.775 0 5.584-0.77 8.093-2.381 6.97-4.477 8.991-13.757 4.515-20.727a134.856 134.856 0 0 0-10.811-14.568c-5.374-6.303-14.841-7.057-21.146-1.684-6.304 5.375-7.058 14.842-1.684 21.146a104.944 104.944 0 0 1 8.398 11.318z" fill="#2F195F" p-id="6344"></path><path d="M832.161 496.798H712.91C705.51 398.06 626.632 318.94 528 311.154v-55.201c0-8.284-6.716-15-15-15s-15 6.716-15 15v55.055c-99.564 6.867-179.464 86.385-186.914 185.79H192.037c-8.284 0-15 6.716-15 15s6.716 15 15 15H323.05c0.803 0.133 1.627 0.202 2.468 0.202 8.284 0 15-6.716 15-15 0-89.841 69.45-163.76 157.481-170.907v37.606c-67.349 7.022-120.03 64.124-120.03 133.301 0 69.177 52.681 126.278 120.031 133.301v37.6c-66.047-5.448-124.092-49.076-147.104-112.005-2.846-7.781-11.458-11.78-19.24-8.937-7.78 2.846-11.781 11.459-8.936 19.239 14.042 38.4 39.147 71.278 72.602 95.079 30.401 21.628 65.648 34.187 102.678 36.718v54.806c0 8.284 6.716 15 15 15s15-6.716 15-15v-54.955c98.766-7.797 177.72-87.123 184.936-186.049h119.225c8.284 0 15-6.716 15-15s-6.716-14.999-15-14.999zM407.969 512c0-57.363 46.668-104.031 104.031-104.031 15.63 0 30.649 3.375 44.64 10.033 7.479 3.559 16.43 0.381 19.99-7.099 3.56-7.48 0.381-16.43-7.1-19.99-13.212-6.288-27.128-10.296-41.53-11.998v-37.644c82.077 7.631 147.545 73.343 154.8 155.527h-51.776c-8.284 0-15 6.716-15 15 0 0.057 0.008 0.112 0.009 0.169l-0.002 0.033c0 57.362-46.668 104.03-104.03 104.03-57.364 0-104.032-46.668-104.032-104.03zM528 682.729v-37.657c61.541-7.354 110.401-56.569 117.209-118.274h37.627C675.761 609.17 610.211 675.085 528 682.729z" fill="#2F195F" p-id="6345"></path><path d="M547.229 452.577c-2.829-2.815-6.682-4.342-10.654-4.367l-49.297 0.244c-8.284 0.041-14.966 6.79-14.926 15.074 0.041 8.259 6.748 14.926 14.999 14.926h0.076l34.223-0.169v18.609l-33.839 0.106c-8.284 0.026-14.979 6.763-14.953 15.047 0.026 8.268 6.736 14.954 14.999 14.953h0.048l33.743-0.107v18.881l-34.282-0.034h-0.016c-8.276 0-14.991 6.706-15 14.984-0.008 8.285 6.701 15.007 14.985 15.016l49.297 0.05h0.016a15.003 15.003 0 0 0 15-15V463.21c0-3.991-1.59-7.817-4.419-10.633z" fill="#2F195F" p-id="6346"></path></svg>