<?xml version="1.0" standalone="no"?><!DOCTYPE svg PUBLIC "-//W3C//DTD SVG 1.1//EN" "http://www.w3.org/Graphics/SVG/1.1/DTD/svg11.dtd"><svg t="1741697696695" class="icon" viewBox="0 0 1024 1024" version="1.1" xmlns="http://www.w3.org/2000/svg" p-id="9057" xmlns:xlink="http://www.w3.org/1999/xlink" width="200" height="200"><path d="M113.20603 231.557789h797.58794v533.097487H113.20603z" fill="#BED7FC" p-id="9058"></path><path d="M910.79397 764.655276H113.20603L910.79397 231.557789z" fill="#7B92AD" p-id="9059"></path><path d="M660.196985 498.106533m-234.645226 0a234.645226 234.645226 0 1 0 469.290452 0 234.645226 234.645226 0 1 0-469.290452 0Z" fill="#434651" p-id="9060"></path><path d="M660.196985 498.106533m-33.961809 0a33.961809 33.961809 0 1 0 67.923618 0 33.961809 33.961809 0 1 0-67.923618 0Z" fill="#E8ECF9" p-id="9061"></path><path d="M644.759799 337.559799c-36.020101 44.253266-6.689447 100.856281-1.029146 112.691457 5.145729-2.058291 10.291457-3.087437 15.951759-3.087437 6.174874 0 11.835176 0.514573 16.980905 2.058292 4.116583-51.971859 44.253266-72.040201 44.253266-100.341709-0.514573-27.786935-40.651256-55.059296-76.156784-11.320603zM500.164824 513.543719c44.253266 36.020101 100.856281 6.689447 112.691457 1.029145-2.058291-5.145729-3.087437-10.291457-3.087437-15.951758 0-6.174874 0.514573-11.835176 2.058292-16.980905-51.971859-4.116583-72.040201-44.253266-100.341709-44.253266-27.786935 0.514573-55.573869 40.651256-11.320603 76.156784zM676.148744 658.138693c36.020101-44.253266 6.689447-100.856281 1.029145-112.691457-5.145729 2.058291-10.291457 3.087437-15.951758 3.087437-6.174874 0-11.835176-0.514573-16.980905-2.058291-4.116583 51.971859-44.253266 72.040201-44.253266 100.341708 0 27.786935 40.136683 55.573869 76.156784 11.320603zM820.743719 482.154774c-44.253266-36.020101-100.856281-6.689447-112.691458-1.029146 2.058291 5.145729 3.087437 10.291457 3.087437 15.951759 0 6.174874-0.514573 11.835176-2.058291 16.980904 51.971859 4.116583 72.040201 44.253266 100.341709 44.253267 27.272362 0 55.059296-40.136683 11.320603-76.156784z" fill="#E8ECF9" p-id="9062"></path><path d="M133.274372 278.38392h256.257286v24.184924H133.274372zM133.274372 324.695477h256.257286v24.184925H133.274372zM133.274372 370.492462h256.257286v24.184925H133.274372zM133.274372 416.80402h256.257286v24.184925H133.274372zM133.274372 463.115578h256.257286v24.184925H133.274372zM133.274372 508.912563h256.257286v24.184924H133.274372zM133.274372 555.224121h256.257286v24.184924H133.274372zM133.274372 601.021106h256.257286v24.184924H133.274372zM133.274372 647.332663h256.257286v24.184925H133.274372zM133.274372 693.129648h256.257286v24.184925H133.274372z" fill="#434651" p-id="9063"></path><path d="M113.20603 764.655276h797.58794v28.301508H113.20603z" fill="#434651" p-id="9064"></path></svg>