<?xml version="1.0" standalone="no"?><!DOCTYPE svg PUBLIC "-//W3C//DTD SVG 1.1//EN" "http://www.w3.org/Graphics/SVG/1.1/DTD/svg11.dtd"><svg t="1740814554878" class="icon" viewBox="0 0 1024 1024" version="1.1" xmlns="http://www.w3.org/2000/svg" p-id="2524" xmlns:xlink="http://www.w3.org/1999/xlink" width="200" height="200"><path d="M299.035648 921.120768c-4.291584-1.73056-8.45824-3.923968-12.894208-5.121024-49.661952-13.401088-83.7888-55.465984-84.246528-107.098112-0.770048-86.971392-0.364544-173.954048-0.301056-260.931584 0.01536-20.932608 10.585088-33.552384 27.085824-33.263616 16.29184 0.285696 27.495424 13.42464 27.544576 33.793024 0.19968 81.54112 0.018432 163.084288 0.116736 244.626432 0.062464 51.477504 20.272128 71.747584 71.241728 71.754752 122.99264 0.018432 245.98528 0.028672 368.97792-0.00512 48.095232-0.013312 69.08416-21.030912 69.17632-69.718016 0.152576-80.183296-0.049152-160.366592 0.18944-240.548864 0.023552-7.97184-0.768-18.896896 3.7888-23.250944 7.873536-7.524352 19.82976-15.440896 29.739008-15.035392 13.504512 0.55296 21.272576 12.20096 21.193728 27.58144-0.30208 59.116544-0.094208 118.235136-0.088064 177.353728 0.003072 27.181056 0.228352 54.36416-0.08192 81.54112-0.666624 58.371072-32.270336 98.746368-88.546304 113.84832-3.131392 0.840704-5.921792 2.953216-8.870912 4.473856C581.720064 921.120768 440.377344 921.120768 299.035648 921.120768z" fill="" p-id="2525"></path><path d="M505.380864 148.370432c-4.595712 6.788096-8.229888 14.541824-13.928448 20.222976-124.603392 124.23168-249.42592 248.244224-374.237184 372.268032-17.082368 16.974848-24.224768 17.425408-39.053312 2.925568-15.04768-14.713856-15.102976-22.08256-0.262144-37.475328 1.414144-1.466368 2.889728-2.874368 4.334592-4.31104 133.49376-132.634624 266.979328-265.27744 400.487424-397.896704 20.704256-20.566016 36.004864-20.51584 56.84224 0.18432 133.984256 133.106688 267.96032 266.221568 401.89952 399.374336 17.952768 17.847296 17.90976 24.513536 2.377728 40.41728-12.720128 13.024256-24.122368 12.626944-36.401152-0.420864-11.167744-11.86816-22.992896-23.117824-34.555904-34.612224-114.67264-113.98656-229.4016-227.917824-343.86944-342.109184-5.1968-5.184512-8.05888-12.709888-12.008448-19.145728C513.13152 147.985408 509.256704 148.17792 505.380864 148.370432z" fill="" p-id="2526"></path></svg>