<?xml version="1.0" standalone="no"?><!DOCTYPE svg PUBLIC "-//W3C//DTD SVG 1.1//EN" "http://www.w3.org/Graphics/SVG/1.1/DTD/svg11.dtd"><svg t="1741697656184" class="icon" viewBox="0 0 1296 1024" version="1.1" xmlns="http://www.w3.org/2000/svg" p-id="8864" xmlns:xlink="http://www.w3.org/1999/xlink" width="253.125" height="200"><path d="M667.63354 212.709778z m-17.753699 60.740481c-10.497383 5.406152-26.158166 9.257379-48.871877 10.241509-87.895898 3.805301-125.837375 0.498626-127.936852-34.339564-1.397464-23.225459 8.555367-34.739776 29.851932-34.536389 12.242573-38.512273 32.305695-58.772221 60.195929-60.773285a87.567854 87.567854 0 0 1 18.869046 0.583917c4.658214-8.109228 13.292311-12.098234 25.915413-11.980138 12.236012-38.512273 32.299134-58.772221 60.189368-60.773285 30.836062-2.217572 51.043523 10.438335 59.546404 26.374674 10.595796-12.111355 23.553502-18.718146 38.866559-19.81381 19.826932-1.423708 35.264645 3.300115 46.017902 11.087861 12.334425-36.071631 31.984213-55.078455 58.955925-57.01391 35.015332-2.519372 56.338141 14.145223 62.354453 33.001147a29.523889 29.523889 0 0 1 38.538517 40.893866c1.463073 2.722759 2.73588 5.760439 3.615036 8.968702 8.548806 6.016312 14.223954 13.948397 16.894225 22.306938a29.412354 29.412354 0 0 1 12.649346-2.834293c7.177585 0 13.764693 2.558737 18.882167 6.823298 12.190086-23.120485 29.005581-35.45491 50.453046-36.990152 35.015332-2.519372 56.338141 14.145223 62.354453 33.001147a29.523889 29.523889 0 0 1 38.538517 40.893867c10.09717 18.75095 11.153469 52.545961-63.003979 55.754223-52.027653 2.256937-86.564042 2.014185-106.509069-5.780121-8.004254 2.512811-17.924281 4.376096-30.147171 5.320861 4.973135 18.895289-3.772497 43.662551-66.723989 46.38531-60.327146 2.617785-97.120473 1.876407-114.946341-10.103731-8.148593 1.804238-17.865233 3.044241-29.392671 3.542867-60.556776 2.624346-97.40259 1.869846-115.156289-10.241509z" fill="#000000" fill-opacity=".5" p-id="8865"></path><path d="M542.28823 142.646309C554.537363 104.134036 574.593925 83.874088 602.484158 81.873024c41.83207-3.004876 64.119326 21.362174 64.119326 44.141494s17.399412 7.413777 30.645797 21.171909c13.252946 13.764693 31.026327 60.530533-56.876132 64.335834-87.895898 3.805301-125.837375 0.498626-127.936852-34.339563-1.397464-23.225459 8.555367-34.739776 29.851933-34.536389z" fill="#FFE9B3" p-id="8866"></path><path d="M592.196723 161.246359m-16.40216 0a16.40216 16.40216 0 1 0 32.804321 0 16.40216 16.40216 0 1 0-32.804321 0Z" fill="#F7A85E" p-id="8867"></path><path d="M677.487958 141.563767m-29.523889 0a29.523889 29.523889 0 1 0 59.047778 0 29.523889 29.523889 0 1 0-59.047778 0Z" fill="#FFFFFF" p-id="8868"></path><path d="M640.701192 149.207173C652.950326 110.694901 673.006888 90.434952 700.897121 88.433888c41.83207-3.004876 64.119326 21.362174 64.119326 44.141495s17.399412 7.413777 30.645797 21.171908c13.252946 13.764693 31.026327 60.530533-56.876132 64.335835-87.895898 3.805301-125.837375 0.498626-127.936852-34.339564-1.397464-23.225459 8.555367-34.739776 29.851932-34.536389z" fill="#FFE9B3" p-id="8869"></path><path d="M690.609686 167.807223m-16.40216 0a16.40216 16.40216 0 1 0 32.804321 0 16.40216 16.40216 0 1 0-32.804321 0Z" fill="#F7A85E" p-id="8870"></path><path d="M775.900921 148.124631m-29.523889 0a29.523889 29.523889 0 1 0 59.047778 0 29.523889 29.523889 0 1 0-59.047778 0Z" fill="#FFFFFF" p-id="8871"></path><path d="M601.336007 214.815815C613.585141 176.303542 633.641702 156.043594 661.531936 154.04253c41.83207-3.004876 64.119326 21.362174 64.119326 44.141495s17.399412 7.413777 30.645797 21.171908c13.252946 13.764693 31.026327 60.530533-56.876132 64.335835-87.895898 3.805301-125.837375 0.498626-127.936852-34.339564-1.397464-23.225459 8.555367-34.739776 29.851932-34.536389z" fill="#FFE9B3" p-id="8872"></path><path d="M651.244501 233.415865m-16.40216 0a16.40216 16.40216 0 1 0 32.804321 0 16.40216 16.40216 0 1 0-32.804321 0Z" fill="#F7A85E" p-id="8873"></path><path d="M736.535736 213.733273m-29.523889 0a29.523889 29.523889 0 1 0 59.047777 0 29.523889 29.523889 0 1 0-59.047777 0Z" fill="#FFFFFF" p-id="8874"></path><path d="M745.675019 221.376679C757.924153 182.864407 777.980715 162.604458 805.870948 160.603394c41.83207-3.004876 64.119326 21.362174 64.119326 44.141495s17.399412 7.413777 30.645797 21.171908c13.252946 13.764693 31.026327 60.530533-56.876132 64.335835-87.895898 3.805301-125.837375 0.498626-127.936852-34.339563-1.397464-23.225459 8.555367-34.739776 29.851932-34.53639z" fill="#FFE9B3" p-id="8875"></path><path d="M795.583513 239.976729m-16.40216 0a16.40216 16.40216 0 1 0 32.804321 0 16.40216 16.40216 0 1 0-32.804321 0Z" fill="#F7A85E" p-id="8876"></path><path d="M880.874748 220.294137m-29.523889 0a29.523889 29.523889 0 1 0 59.047778 0 29.523889 29.523889 0 1 0-59.047778 0Z" fill="#FFFFFF" p-id="8877"></path><path d="M745.675019 103.281124C757.924153 64.768851 777.980715 44.508903 805.870948 42.507839c41.83207-3.004876 64.119326 21.362174 64.119326 44.141494s17.399412 7.413777 30.645797 21.171909c13.252946 13.764693 31.026327 60.530533-56.876132 64.335834-87.895898 3.805301-125.837375 0.498626-127.936852-34.339563-1.397464-23.225459 8.555367-34.739776 29.851932-34.536389z" fill="#FFE9B3" p-id="8878"></path><path d="M795.583513 121.881174m-16.40216 0a16.40216 16.40216 0 1 0 32.804321 0 16.40216 16.40216 0 1 0-32.804321 0Z" fill="#F7A85E" p-id="8879"></path><path d="M880.874748 102.198581m-29.523889 0a29.523889 29.523889 0 1 0 59.047778 0 29.523889 29.523889 0 1 0-59.047778 0Z" fill="#FFFFFF" p-id="8880"></path><path d="M949.061809 175.45063C961.310943 136.938357 981.367505 116.678409 1009.257738 114.677345c41.83207-3.004876 64.119326 21.362174 64.119326 44.141494s17.399412 7.413777 30.645797 21.171909c13.252946 13.764693 31.026327 60.530533-56.876132 64.335834-87.895898 3.805301-125.837375 0.498626-127.936852-34.339563-1.397464-23.225459 8.555367-34.739776 29.851932-34.536389z" fill="#FFE9B3" p-id="8881"></path><path d="M998.970303 194.05068m-16.40216 0a16.40216 16.40216 0 1 0 32.804321 0 16.40216 16.40216 0 1 0-32.804321 0Z" fill="#F7A85E" p-id="8882"></path><path d="M1084.261538 174.368088m-29.523889 0a29.523889 29.523889 0 1 0 59.047777 0 29.523889 29.523889 0 1 0-59.047777 0Z" fill="#FFFFFF" p-id="8883"></path><path d="M804.722797 175.45063C816.971931 136.938357 837.028492 116.678409 864.918726 114.677345c41.83207-3.004876 64.119326 21.362174 64.119326 44.141494s17.399412 7.413777 30.645796 21.171909c13.252946 13.764693 31.026327 60.530533-56.876131 64.335834-87.895898 3.805301-125.837375 0.498626-127.936852-34.339563-1.397464-23.225459 8.555367-34.739776 29.851932-34.536389z" fill="#FFE9B3" p-id="8884"></path><path d="M854.631291 194.05068m-16.402161 0a16.40216 16.40216 0 1 0 32.804321 0 16.40216 16.40216 0 1 0-32.804321 0Z" fill="#F7A85E" p-id="8885"></path><path d="M939.922525 174.368088m-29.523888 0a29.523889 29.523889 0 1 0 59.047777 0 29.523889 29.523889 0 1 0-59.047777 0Z" fill="#FFFFFF" p-id="8886"></path><path d="M437.314403 214.815815C449.563536 176.303542 469.620098 156.043594 497.510331 154.04253c41.83207-3.004876 64.119326 21.362174 64.119326 44.141495s17.399412 7.413777 30.645797 21.171908c13.252946 13.764693 31.026327 60.530533-56.876132 64.335835-87.895898 3.805301-125.837375 0.498626-127.936852-34.339564-1.397464-23.225459 8.555367-34.739776 29.851933-34.536389z" fill="#FFE9B3" p-id="8887"></path><path d="M487.222896 233.415865m-16.40216 0a16.40216 16.40216 0 1 0 32.804321 0 16.40216 16.40216 0 1 0-32.804321 0Z" fill="#F7A85E" p-id="8888"></path><path d="M572.514131 213.733273m-29.523889 0a29.523889 29.523889 0 1 0 59.047778 0 29.523889 29.523889 0 1 0-59.047778 0Z" fill="#FFFFFF" p-id="8889"></path><path d="M414.489156 222.813509l121.179162 799.28384h567.304804L1210.276056 222.813509l-34.667606 17.419094-32.725591-17.419094-32.928977 17.419094-33.014269-17.419094-39.562011 17.419094-38.131743-17.419094-39.955662 17.419094L917.549979 222.813509l-40.172172 20.797939-41.569635-20.797939-42.632496 20.797939-42.908052-20.797939-44.462976 20.797939-42.068261-20.797939-42.540644 17.419094L579.836055 222.813509l-44.174298 17.419094-44.810703-17.419094-35.802636 20.797939z" fill="#000000" fill-opacity=".5" p-id="8890"></path><path d="M385.530069 183.247564l45.583723-5.596977 108.097625 880.3845-45.583724 5.596977z" fill="#F79478" p-id="8891"></path><path d="M523.308487 200.531587l45.814176-3.203639 61.873716 884.835356-45.814176 3.203639z" fill="#F79478" p-id="8892"></path><path d="M661.084504 198.134137l45.919055-0.80152 15.480215 886.86094-45.919054 0.80152z" fill="#F79478" p-id="8893"></path><path d="M781.538432 197.332388l45.919055 0.80152-15.480216 886.86094-45.919054-0.80152z" fill="#F79478" p-id="8894"></path><path d="M891.211719 197.334153l45.863109 2.403584-46.421785 885.780437-45.86311-2.403584z" fill="#E36B6B" p-id="8895"></path><path d="M987.703891 197.332306l45.751287 4.002719-77.306799 883.620746-45.751286-4.002719z" fill="#E36B6B" p-id="8896"></path><path d="M1075.352478 198.153287l45.583723 5.596978-108.097624 880.3845-45.583724-5.596977z" fill="#E36B6B" p-id="8897"></path><path d="M1202.829475 921.867027c-6.016312-18.862485-27.339121-35.52708-62.354453-33.007708-27.890234 2.001064-47.959917 22.261012-60.195929 60.773285-21.296565-0.196826-31.249396 11.31093-29.851932 34.53639 2.099477 34.838189 40.040954 38.151425 127.936852 34.339563 74.157448-3.214823 73.101149-37.003274 62.997418-55.747663a29.523889 29.523889 0 0 0-38.538517-40.893867z m-936.097541 27.765577c12.242573-38.512273 32.305695-58.772221 60.195929-60.773285 41.83207-3.004876 19.89254 65.018164 37.88899 60.773285 18.003011-4.25144 11.481512-20.483018 38.210473-12.695272 26.735522 7.787746 49.685425 77.765923-38.210473 81.571225-87.895898 3.805301-125.837375 0.498626-127.936851-34.339563-1.397464-23.225459 8.555367-34.739776 29.851932-34.53639z m-137.778148 19.682593c12.242573-38.512273 32.305695-58.772221 60.195929-60.773285 41.83207-3.004876 16.520256 14.932527 37.88899 60.773285 21.375296 45.840758-125.837375 69.374578-127.936851 34.536389-1.397464-23.225459 8.555367-34.739776 29.851932-34.536389z" fill="#000000" fill-opacity=".5" p-id="8898"></path><path d="M1054.035636 949.632604C1066.28477 911.120332 1086.341332 890.860383 1114.231565 888.859319c41.83207-3.004876 64.119326 21.362174 64.119326 44.141495s17.399412 7.413777 30.645797 21.171908c13.252946 13.764693 31.026327 60.530533-56.876132 64.335835-87.895898 3.805301-125.837375 0.498626-127.936852-34.339563-1.397464-23.225459 8.555367-34.739776 29.851932-34.53639z" fill="#FFE9B3" p-id="8899"></path><path d="M1103.94413 968.232654m-16.40216 0a16.40216 16.40216 0 1 0 32.804321 0 16.40216 16.40216 0 1 0-32.804321 0Z" fill="#F7A85E" p-id="8900"></path><path d="M1189.235365 948.550062m-29.523889 0a29.523889 29.523889 0 1 0 59.047777 0 29.523889 29.523889 0 1 0-59.047777 0Z" fill="#FFFFFF" p-id="8901"></path><path d="M240.488477 949.632604C252.73761 911.120332 272.794172 890.860383 300.684406 888.859319c41.83207-3.004876 19.89254 65.018164 37.88899 60.773285 18.003011-4.25144 11.481512-20.483018 38.210474-12.695272 26.735522 7.787746 49.691985 77.765923-38.210474 81.571225-87.895898 3.805301-125.837375 0.498626-127.936851-34.339563-1.397464-23.225459 8.555367-34.739776 29.851932-34.53639z" fill="#FFE9B3" p-id="8902"></path><path d="M290.396971 968.232654m-16.402161 0a16.40216 16.40216 0 1 0 32.804321 0 16.40216 16.40216 0 1 0-32.804321 0Z" fill="#F7A85E" p-id="8903"></path><path d="M102.710329 969.315197C114.959462 930.802924 135.016024 910.542976 162.906258 908.541912c41.83207-3.004876 16.520256 14.932527 37.88899 60.773285 21.375296 45.840758-125.837375 69.374578-127.936851 34.536389-1.397464-23.225459 8.555367-34.739776 29.851932-34.536389z" fill="#FFE9B3" p-id="8904"></path><path d="M178.86228 981.354383m-16.402161 0a16.40216 16.40216 0 1 0 32.804321 0 16.40216 16.40216 0 1 0-32.804321 0Z" fill="#F7A85E" p-id="8905"></path><path d="M34.523267 1017.439136a16.40216 16.40216 0 0 0 16.402161-16.402161c0-9.053993-9.26394-11.999821-18.317933-11.99982-3.726571 0-8.194519-7.82055-16.651473-4.40234-12.386912 5.005939-15.568931 16.297187-13.371042 21.4081C7.492507 1017.439136 25.462714 1017.439136 34.523267 1017.439136z" fill="#FFE9B3" p-id="8906"></path></svg>