<?xml version="1.0" standalone="no"?><!DOCTYPE svg PUBLIC "-//W3C//DTD SVG 1.1//EN" "http://www.w3.org/Graphics/SVG/1.1/DTD/svg11.dtd"><svg t="1741697588274" class="icon" viewBox="0 0 1024 1024" version="1.1" xmlns="http://www.w3.org/2000/svg" p-id="7769" xmlns:xlink="http://www.w3.org/1999/xlink" width="200" height="200"><path d="M981.888 898.816c0 60.672-49.152 109.9264-109.7984 109.9264H148.1728A109.8496 109.8496 0 0 1 38.4 898.816V519.5008C38.4 458.8288 87.552 409.6 148.1728 409.6h723.9168c60.672 0 109.7984 49.152 109.7984 109.9008V898.816z" fill="#FFAD6E" p-id="7770"></path><path d="M568.448 49.2288a86.272 86.272 0 0 1 0 122.1888 86.4 86.4 0 0 1-122.2912 0 86.272 86.272 0 0 1 0-122.1888 86.4 86.4 0 0 1 122.2912 0z" fill="#FFCDA8" p-id="7771"></path><path d="M869.3248 375.9872h-110.6432L606.72 64.768a111.1296 111.1296 0 0 0-22.0672-31.744A108.544 108.544 0 0 0 507.3664 0.9728a109.44 109.44 0 0 0-100.096 65.2288l-151.0912 309.76H145.408A132.8128 132.8128 0 0 0 12.8 508.7232v379.3408a132.7872 132.7872 0 0 0 132.608 132.608h723.9168a132.8128 132.8128 0 0 0 132.608-132.7104V508.5952a132.7104 132.7104 0 0 0-132.608-132.608zM507.3664 46.7456a63.232 63.232 0 0 1 45.0048 18.688 63.232 63.232 0 0 1 18.5856 45.0048c0 16.9472-6.656 32.9216-18.5856 45.0048a62.7712 62.7712 0 0 1-45.0048 18.5856 63.232 63.232 0 0 1-45.0048-18.688 62.336 62.336 0 0 1-18.5856-45.0048c0-16.9728 6.656-32.9472 18.688-45.0048a63.1552 63.1552 0 0 1 44.9024-18.5856z m-96.2048 115.6352c5.0176 9.1392 11.3152 17.6128 18.944 25.216a108.544 108.544 0 0 0 77.2608 32.0768 108.544 108.544 0 0 0 77.2864-32.0768c7.6032-7.6032 13.9008-16.0768 18.9184-25.3184l104.2176 213.5808H306.944l104.2432-213.4784z m545.1264 725.5552a87.168 87.168 0 0 1-86.9632 87.04H145.408a87.0912 87.0912 0 0 1-86.9632-87.04V508.5952a87.168 87.168 0 0 1 86.9632-87.0656h723.9168a87.0912 87.0912 0 0 1 86.9632 87.04v379.3664z" fill="#543925" p-id="7772"></path><path d="M237.9264 854.4256c7.2704 0.8192 12.9536 0.512 17.0496-0.9216 8.8064-3.072 15.0016-7.424 18.5856-13.056 3.584-5.632 5.376-13.8752 5.376-24.7296v-107.2128h12.9024c3.2768 0 4.1984 1.8432 2.7648 5.5296a217.8048 217.8048 0 0 1-6.4512 15.6672c-3.4816 6.9632-4.864 12.2368-4.1472 15.8208 0.7168 3.584 4.0448 6.8096 9.984 9.6768 4.9152 2.2528 9.1648 2.6624 12.7488 1.2288 3.584-1.4336 6.8096-5.3248 9.6768-11.6736 4.5056-9.4208 7.4752-17.152 8.9088-23.1936 1.4336-6.0416 2.1504-11.9296 2.1504-17.664 0-10.0352-2.4064-17.3056-7.2192-21.8112-4.8128-4.5056-11.52-6.7584-20.1216-6.7584h-4.9152c2.2528-4.096 2.6624-7.68 1.2288-10.752-1.4336-3.072-4.608-6.3488-9.5232-9.8304 4.9152-5.9392 9.472-11.6224 13.6704-17.0496 4.1984-5.4272 8.0384-10.8032 11.52-16.128 2.2528-3.4816 3.7888-6.7584 4.608-9.8304s1.2288-6.2464 1.2288-9.5232c0-7.7824-2.56-14.2336-7.68-19.3536-5.12-5.12-12.3904-7.68-21.8112-7.68H215.6544c-6.5536 0-10.9568 1.3824-13.2096 4.1472-2.2528 2.7648-3.3792 6.912-3.3792 12.4416 0 5.5296 1.1264 9.6768 3.3792 12.4416 2.2528 2.7648 6.656 4.1472 13.2096 4.1472h59.904c3.4816 0 4.1984 1.536 2.1504 4.608l-9.5232 12.9024c-2.8672 3.8912-5.9392 7.68-9.216 11.3664a271.616 271.616 0 0 0-9.6768-5.5296 938.6496 938.6496 0 0 0-10.2912-5.5296 22.5792 22.5792 0 0 0-13.9776-3.072c-4.4032 0.6144-8.0384 3.6864-10.9056 9.216-5.12 9.0112-2.2528 16.4864 8.6016 22.4256 6.5536 3.4816 13.0048 7.0656 19.3536 10.752 6.3488 3.6864 12.0832 6.9632 17.2032 9.8304h-50.688c-6.5536 0-10.9568 1.3312-13.2096 3.9936-2.2528 2.6624-3.3792 6.9632-3.3792 12.9024 0 5.7344 1.28 9.8816 3.84 12.4416 2.56 2.56 6.8096 3.84 12.7488 3.84h36.864v106.5984c0 4.3008-1.3312 6.3488-3.9936 6.144a86.8352 86.8352 0 0 1-17.2032-4.608c-5.3248-1.8432-9.6768-2.1504-13.056-0.9216-3.3792 1.2288-6.0928 5.0176-8.1408 11.3664-1.8432 5.7344-1.8432 10.1376 0 13.2096s6.144 5.9392 12.9024 8.6016c7.3728 2.8672 14.6944 4.7104 21.9648 5.5296z m220.7232-65.4336c6.5536 0 10.9568-1.5872 13.2096-4.7616 2.2528-3.1744 3.3792-7.6288 3.3792-13.3632v-108.4416c0-7.168-0.4096-12.9536-1.2288-17.3568a17.6896 17.6896 0 0 0-5.0688-10.1376 21.248 21.248 0 0 0-11.0592-4.7616 116.8896 116.8896 0 0 0-18.8928-1.2288h-22.4256c0.4096-2.8672 0.9216-5.6832 1.536-8.448 0.6144-2.7648 1.1264-5.5808 1.536-8.448h49.7664c7.7824 0 13.0048-1.5872 15.6672-4.7616a18.2272 18.2272 0 0 0 3.9936-12.1344c0-5.7344-1.3312-9.9328-3.9936-12.5952-2.6624-2.6624-7.8848-3.9936-15.6672-3.9936H339.456c-7.168 0-12.1856 1.1264-15.0528 3.3792-2.8672 2.2528-4.3008 6.656-4.3008 13.2096 0 6.3488 1.3312 10.752 3.9936 13.2096 2.6624 2.4576 7.7824 3.6864 15.36 3.6864h46.6944a126.2592 126.2592 0 0 1-1.536 8.6016l-1.8432 8.2944h-16.896c-7.7824 0-14.0288 0.4096-18.7392 1.2288a21.888 21.888 0 0 0-10.9056 4.608 16.7936 16.7936 0 0 0-5.0688 9.8304 91.4944 91.4944 0 0 0-1.2288 16.5888v109.6704c0 5.7344 1.1264 10.1888 3.3792 13.3632 2.2528 3.1744 6.5536 4.7616 12.9024 4.7616 6.5536 0 11.008-1.5872 13.3632-4.7616 2.3552-3.1744 3.5328-7.6288 3.5328-13.3632v-99.5328c0-4.096 0.8192-6.656 2.4576-7.68 1.6384-1.024 4.8128-1.536 9.5232-1.536h55.296c3.8912 0 6.7584 0.6144 8.6016 1.8432 1.8432 1.2288 2.7648 3.6864 2.7648 7.3728v99.5328c0 5.3248 1.4336 9.6768 4.3008 13.056 2.8672 3.3792 7.0656 5.0688 12.5952 5.0688z m-144.9984 62.976c6.3488 10.4448 16.0768 11.0592 29.184 1.8432a211.8912 211.8912 0 0 0 35.4816-30.2592c9.728-10.5472 17.664-22.016 23.808-34.4064 6.144-12.3904 10.6496-26.112 13.5168-41.1648 2.8672-15.0528 4.3008-31.7952 4.3008-50.2272 0-6.5536-1.2288-11.3664-3.6864-14.4384-2.4576-3.072-6.656-4.608-12.5952-4.608-6.9632 0-11.6736 1.6384-14.1312 4.9152-2.4576 3.2768-3.6864 8.704-3.6864 16.2816 0 15.36-1.024 29.0816-3.072 41.1648-2.048 12.0832-5.4784 23.04-10.2912 32.8704-4.8128 9.8304-11.264 18.944-19.3536 27.3408-8.0896 8.3968-18.176 16.5888-30.2592 24.576-6.5536 4.3008-10.496 8.448-11.8272 12.4416-1.3312 3.9936-0.4608 8.5504 2.6112 13.6704z m155.4432 7.68c3.6864 0.6144 7.7824-1.1264 12.288-5.2224 8.8064-7.5776 8.0896-16.896-2.1504-27.9552a665.088 665.088 0 0 0-21.0432-21.1968 262.144 262.144 0 0 0-9.6768-8.9088 570.8288 570.8288 0 0 0-10.4448-8.9088c-5.9392-4.7104-11.0592-7.3216-15.36-7.8336-4.3008-0.512-8.3968 1.4848-12.288 5.9904-4.3008 4.7104-5.888 9.2672-4.7616 13.6704 1.1264 4.4032 4.9664 9.2672 11.52 14.592a379.9808 379.9808 0 0 1 37.4784 35.9424c5.9392 5.9392 10.752 9.216 14.4384 9.8304z m331.3664-146.5344c6.5536 0 11.264-1.4848 14.1312-4.4544 2.8672-2.9696 4.3008-7.2192 4.3008-12.7488 0-5.9392-1.4336-10.3936-4.3008-13.3632-2.8672-2.9696-7.5776-4.4544-14.1312-4.4544h-109.6704V641.536H780.8c6.5536 0 11.264-1.28 14.1312-3.84 2.8672-2.56 4.3008-6.8096 4.3008-12.7488 0-6.7584-1.4336-11.52-4.3008-14.2848-2.8672-2.7648-7.5776-4.1472-14.1312-4.1472h-90.0096v-25.1904c0-6.5536-1.6384-11.2128-4.9152-13.9776-3.2768-2.7648-7.8848-4.1472-13.824-4.1472-5.9392 0-10.5984 1.3824-13.9776 4.1472-3.3792 2.7648-5.0688 7.424-5.0688 13.9776v25.1904h-42.3936l1.2288-1.8432a20.096 20.096 0 0 0 1.2288-2.1504c7.5776-13.7216 5.12-23.3472-7.3728-28.8768-5.9392-2.6624-10.752-2.9184-14.4384-0.768-3.6864 2.1504-7.5776 7.0144-11.6736 14.592a230.6304 230.6304 0 0 1-15.6672 25.344 188.16 188.16 0 0 1-19.3536 22.272c-6.5536 6.5536-10.4448 12.032-11.6736 16.4352-1.2288 4.4032 0.2048 9.0624 4.3008 13.9776 4.5056 5.3248 9.216 7.8848 14.1312 7.68 4.9152-0.2048 10.6496-3.584 17.2032-10.1376a300.1344 300.1344 0 0 0 19.3536-21.504h65.1264v36.5568h-113.9712c-6.5536 0-11.264 1.3312-14.1312 3.9936-2.8672 2.6624-4.3008 6.9632-4.3008 12.9024 0 5.7344 1.4336 10.1888 4.3008 13.3632 2.8672 3.1744 7.5776 4.7616 14.1312 4.7616h261.4272z m-51.9168 135.168c11.8784 0 20.48-2.2528 25.8048-6.7584 5.3248-4.5056 7.9872-12.9024 7.9872-25.1904v-51.3024c0-12.0832-2.6624-20.48-7.9872-25.1904-5.3248-4.7104-13.9264-7.0656-25.8048-7.0656h-158.5152c-12.0832 0-20.736 2.3552-25.9584 7.0656-5.2224 4.7104-7.8336 13.1072-7.8336 25.1904v51.3024c0 12.288 2.6112 20.6848 7.8336 25.1904 5.2224 4.5056 13.8752 6.7584 25.9584 6.7584h158.5152z m-10.1376-36.864h-139.4688c-2.2528 0-3.7376-0.256-4.4544-0.768-0.7168-0.512-1.0752-1.9968-1.0752-4.4544v-31.3344c0-2.8672 0.4096-4.608 1.2288-5.2224 0.8192-0.6144 2.4576-0.9216 4.9152-0.9216h139.4688c2.4576 0 3.9936 0.3584 4.608 1.0752 0.6144 0.7168 0.9216 2.0992 0.9216 4.1472v31.3344c0 2.4576-0.3072 4.096-0.9216 4.9152-0.6144 0.8192-2.3552 1.2288-5.2224 1.2288z" fill="#543925" p-id="7773"></path></svg>