<?xml version="1.0" standalone="no"?><!DOCTYPE svg PUBLIC "-//W3C//DTD SVG 1.1//EN" "http://www.w3.org/Graphics/SVG/1.1/DTD/svg11.dtd"><svg t="1741768616579" class="icon" viewBox="0 0 1024 1024" version="1.1" xmlns="http://www.w3.org/2000/svg" p-id="22076" xmlns:xlink="http://www.w3.org/1999/xlink" width="200" height="200"><path d="M512 628.97981c-157.013333 0-280.380952-148.041143-280.380952-326.704762C231.619048 120.636952 339.870476 0 512 0s280.380952 120.636952 280.380952 302.275048c0 178.663619-123.367619 326.704762-280.380952 326.704762z m0-97.52381c98.840381 0 182.857143-100.839619 182.857143-229.180952C694.857143 172.27581 627.760762 97.52381 512 97.52381S329.142857 172.27581 329.142857 302.275048c0 128.341333 84.016762 229.180952 182.857143 229.180952z m0 483.523048c-131.364571 0-228.449524-5.168762-310.759619-20.528762-125.318095-23.405714-201.240381-69.729524-201.240381-156.525715C0 688.518095 164.815238 648.533333 512 648.533333s512 39.984762 512 189.391238c0 86.79619-75.922286 133.12-201.240381 156.525715-82.310095 15.36-179.395048 20.48-310.759619 20.48z m0-97.52381c257.706667 0 414.47619-29.257143 414.47619-79.530667 0-59.489524-133.607619-91.867429-414.47619-91.867428S97.52381 778.435048 97.52381 837.924571c0 50.224762 156.769524 79.481905 414.47619 79.481905z" fill="#90d7ec" p-id="22077"></path></svg>