<?xml version="1.0" standalone="no"?><!DOCTYPE svg PUBLIC "-//W3C//DTD SVG 1.1//EN" "http://www.w3.org/Graphics/SVG/1.1/DTD/svg11.dtd"><svg t="1741698059171" class="icon" viewBox="0 0 1024 1024" version="1.1" xmlns="http://www.w3.org/2000/svg" p-id="18695" xmlns:xlink="http://www.w3.org/1999/xlink" width="200" height="200"><path d="M768 384h42.688v42.688H768z" p-id="18696"></path><path d="M768 426.688h42.688v42.688H768z" fill="#EA5129" p-id="18697"></path><path d="M768 469.312h42.688V512H768zM768 512h42.688v42.688H768z m-42.688 42.688H768v42.688h-42.688z" fill="#EA5129" p-id="18698"></path><path d="M725.312 597.312H768V640h-42.688z m0 42.688H768v42.688h-42.688zM768 554.688h42.688v42.688H768z" fill="#EA5129" p-id="18699"></path><path d="M768 597.312h42.688V640H768zM768 640h42.688v42.688H768z m-42.688 42.688H768v42.688h-42.688z m42.688 0h42.688v42.688H768z" fill="#EA5129" p-id="18700"></path><path d="M725.312 725.312H768V768h-42.688z m0 42.688H768v42.688h-42.688zM768 725.312h42.688V768H768zM768 768h42.688v42.688H768z m0 42.688h42.688v42.688H768z" fill="#EA5129" p-id="18701"></path><path d="M810.688 384h42.688v42.688h-42.688z" p-id="18702"></path><path d="M810.688 426.688h42.688v42.688h-42.688z" fill="#EA5129" p-id="18703"></path><path d="M810.688 469.312h42.688V512h-42.688z m0 42.688h42.688v42.688h-42.688z m0 42.688h42.688v42.688h-42.688z" fill="#EA5129" p-id="18704"></path><path d="M810.688 597.312h42.688V640h-42.688z m0 42.688h42.688v42.688h-42.688z m0 42.688h42.688v42.688h-42.688z" fill="#EA5129" p-id="18705"></path><path d="M853.312 384H896v42.688h-42.688z" p-id="18706"></path><path d="M853.312 426.688H896v42.688h-42.688z m-128 426.624H768V896h-42.688z m0 42.688H768v42.688h-42.688z m0 42.688H768v42.688h-42.688zM768 896h42.688v42.688H768z m0 42.688h42.688v42.688H768z" fill="#EA5129" p-id="18707"></path><path d="M725.312 810.688H768v42.688h-42.688zM768 853.312h42.688V896H768z" fill="#EA5129" p-id="18708"></path><path d="M341.312 170.688H384v42.688h-42.688z m42.688 0h42.688v42.688H384z m85.312 0H512v42.688h-42.688zM128 213.312h42.688V256H128z" fill="#FBCE6C" p-id="18709"></path><path d="M298.688 213.312h42.688V256h-42.688z m128 0h42.688V256h-42.688zM85.312 256H128v42.688H85.312zM256 256h42.688v42.688H256zM85.312 298.688H128v42.688H85.312z" fill="#FBCE6C" p-id="18710"></path><path d="M128 298.688h42.688v42.688H128z" fill="#FCDC9D" p-id="18711"></path><path d="M554.688 170.688h42.688v42.688h-42.688z" fill="#FBCE6C" p-id="18712"></path><path d="M597.312 213.312H640V256h-42.688z m42.688 0h42.688V256H640zM640 256h42.688v42.688H640zM341.312 42.688H384v42.688h-42.688z m42.688 0h42.688v42.688H384z m128 0h42.688v42.688H512z m42.688 0h42.688v42.688h-42.688z" fill="#FBCE6C" p-id="18713"></path><path d="M597.312 85.312H640V128h-42.688z m128 0H768V128h-42.688z m42.688 0h42.688V128H768z m-42.688 213.376H768v42.688h-42.688zM768 256h42.688v42.688H768z m42.688-85.312h42.688v42.688h-42.688z m0 85.312h42.688v42.688h-42.688z m42.624 42.688H896v42.688h-42.688zM896 256h42.688v42.688H896z m0 42.688h42.688v42.688H896zM170.688 128h42.688v42.688h-42.688z" fill="#FBCE6C" p-id="18714"></path><path d="M213.312 128H256v42.688h-42.688z m256 0H512v42.688h-42.688zM128 170.688h42.688v42.688H128zM512 128h42.688v42.688H512z m170.688 0h42.688v42.688h-42.688zM768 128h42.688v42.688H768z" fill="#FBCE6C" p-id="18715"></path><path d="M170.688 170.624h42.688v42.688h-42.688z" fill="#FCDC9D" p-id="18716"></path><path d="M213.312 170.624H256v42.688h-42.688z m42.688 0h42.688v42.688H256z m42.688 0h42.688v42.688h-42.688z m128 0h42.688v42.688h-42.688z m-256 42.688h42.688V256h-42.688z" fill="#FCDC9D" p-id="18717"></path><path d="M213.312 213.312H256V256h-42.688z m42.688 0h42.688V256H256z m85.312 0H384V256h-42.688z m42.688 0h42.688V256H384z m85.312 0H512V256h-42.688zM128 256h42.688v42.688H128z m42.688 0h42.688v42.688h-42.688z" fill="#FCDC9D" p-id="18718"></path><path d="M213.312 256H256v42.688h-42.688z m85.376 0h42.688v42.688h-42.688z" fill="#FCDC9D" p-id="18719"></path><path d="M341.312 256H384v42.688h-42.688zM384 256h42.688v42.688H384z m42.688 0h42.688v42.688h-42.688z" fill="#FCDC9D" p-id="18720"></path><path d="M469.312 256H512v42.688h-42.688z m-298.624 42.624h42.688v42.688h-42.688z" fill="#FCDC9D" p-id="18721"></path><path d="M213.312 298.624H256v42.688h-42.688z m42.688 0h42.688v42.688H256z m42.688 0h42.688v42.688h-42.688z" fill="#FCDC9D" p-id="18722"></path><path d="M341.312 298.624H384v42.688h-42.688z" fill="#FCDC9D" p-id="18723"></path><path d="M384 298.624h42.688v42.688H384z m42.688 0h42.688v42.688h-42.688z" fill="#FBCE6C" p-id="18724"></path><path d="M469.312 298.624H512v42.688h-42.688z m42.688-128h42.688v42.688H512z m0 42.688h42.688V256H512zM512 256h42.688v42.688H512z" fill="#FCDC9D" p-id="18725"></path><path d="M512 298.624h42.688v42.688H512z m42.688-85.312h42.688V256h-42.688z m0 42.688h42.688v42.688h-42.688z" fill="#FCDC9D" p-id="18726"></path><path d="M554.688 298.624h42.688v42.688h-42.688z m42.624-127.936H640v42.624h-42.688z" fill="#FCDC9D" p-id="18727"></path><path d="M597.312 256H640v42.688h-42.688z" fill="#FCDC9D" p-id="18728"></path><path d="M597.312 298.624H640v42.688h-42.688z m85.376-85.312h42.624V256h-42.624zM640 170.688h42.688v42.624H640z m42.688 0h42.688v42.624h-42.688z" fill="#FCDC9D" p-id="18729"></path><path d="M725.312 170.688H768v42.624h-42.688z m-384-85.376H384V128h-42.688z m42.688 0h42.688V128H384z m42.688 0h42.688V128h-42.688z" fill="#FCDC9D" p-id="18730"></path><path d="M469.312 85.312H512V128h-42.688z m42.688 0h42.688V128H512z m42.688 0h42.688V128h-42.688z m128 213.312h42.688v42.688h-42.688z" fill="#FCDC9D" p-id="18731"></path><path d="M725.312 256H768v42.688h-42.688zM768 213.312h42.688V256H768z m0 85.376h42.688v42.688H768z m42.688-85.376h42.688V256h-42.688z m0 85.376h42.688v42.688h-42.688z" fill="#FCDC9D" p-id="18732"></path><path d="M853.312 213.312H896V256h-42.688z m0 42.688H896v42.688h-42.688zM298.688 128h42.688v42.688h-42.688z" fill="#FCDC9D" p-id="18733"></path><path d="M341.312 128H384v42.688h-42.688zM384 128h42.688v42.688H384z m42.688 0h42.688v42.688h-42.688z m128 0h42.688v42.688h-42.688z" fill="#FCDC9D" p-id="18734"></path><path d="M597.312 128H640v42.688h-42.688zM640 128h42.688v42.688H640z m0 170.624h42.688v42.688H640zM682.688 256h42.688v42.688h-42.688z m42.624-128H768v42.688h-42.688z m0 85.312H768V256h-42.688zM768 170.688h42.688v42.688H768z" fill="#FCDC9D" p-id="18735"></path><path d="M810.688 128h42.688v42.688h-42.688z" fill="#FBCE6C" p-id="18736"></path><path d="M682.688 384h42.688v42.688h-42.688z" p-id="18737"></path><path d="M682.688 426.688h42.688v42.688h-42.688z" fill="#FFFFFF" p-id="18738"></path><path d="M682.688 469.312h42.688V512h-42.688z m0 42.688h42.688v42.688h-42.688z" fill="#FFFFFF" p-id="18739"></path><path d="M597.312 384H640v42.688h-42.688z" p-id="18740"></path><path d="M597.312 426.688H640v42.688h-42.688z" fill="#FFFFFF" p-id="18741"></path><path d="M597.312 469.312H640V512h-42.688z m0 42.688H640v42.688h-42.688z m0 42.688H640v42.688h-42.688z" fill="#FFFFFF" p-id="18742"></path><path d="M597.312 597.312H640V640h-42.688z m0 42.688H640v42.688h-42.688z m0 42.688H640v42.688h-42.688z m0 85.312H640v42.688h-42.688z m0 42.688H640v42.688h-42.688z" fill="#FFFFFF" p-id="18743"></path><path d="M597.312 853.312H640V896h-42.688z m0 42.688H640v42.688h-42.688z m0 42.688H640v42.688h-42.688z m0-213.376H640V768h-42.688z" fill="#FFFFFF" p-id="18744"></path><path d="M640 384h42.688v42.688H640z" p-id="18745"></path><path d="M640 426.688h42.688v42.688H640z" fill="#FFFFFF" p-id="18746"></path><path d="M640 469.312h42.688V512H640zM640 512h42.688v42.688H640z m0 42.688h42.688v42.688H640z" fill="#FFFFFF" p-id="18747"></path><path d="M640 597.312h42.688V640H640zM640 640h42.688v42.688H640z m0 42.688h42.688v42.688H640z" fill="#FFFFFF" p-id="18748"></path><path d="M640 725.312h42.688V768H640zM640 768h42.688v42.688H640z m0 42.688h42.688v42.688H640z" fill="#FFFFFF" p-id="18749"></path><path d="M640 853.312h42.688V896H640zM640 896h42.688v42.688H640z m0 42.688h42.688v42.688H640z" fill="#FFFFFF" p-id="18750"></path><path d="M469.312 384H512v42.688h-42.688z" p-id="18751"></path><path d="M469.312 426.688H512v42.688h-42.688z" fill="#EA5129" p-id="18752"></path><path d="M512 384h42.688v42.688H512z" p-id="18753"></path><path d="M512 426.688h42.688v42.688H512z" fill="#EA5129" p-id="18754"></path><path d="M512 469.312h42.688V512H512z m0 85.376h42.688v42.688H512z" fill="#EA5129" p-id="18755"></path><path d="M512 597.312h42.688V640H512zM469.312 640H512v42.688h-42.688zM512 640h42.688v42.688H512z m-42.688 42.688H512v42.688h-42.688z m42.688 0h42.688v42.688H512z" fill="#EA5129" p-id="18756"></path><path d="M469.312 725.312H512V768h-42.688z m0 42.688H512v42.688h-42.688zM512 725.312h42.688V768H512zM512 768h42.688v42.688H512z m-42.688 42.688H512v42.688h-42.688zM512 853.312h42.688V896H512zM469.312 896H512v42.688h-42.688z m0 42.688H512v42.688h-42.688zM512 896h42.688v42.688H512z m0 42.688h42.688v42.688H512z" fill="#EA5129" p-id="18757"></path><path d="M512 810.688h42.688v42.688H512z m-42.688 42.624H512V896h-42.688z m0-384H512V512h-42.688z m0 42.688H512v42.688h-42.688zM512 512h42.688v42.688H512z m-42.688 42.688H512v42.688h-42.688z" fill="#EA5129" p-id="18758"></path><path d="M469.312 597.312H512V640h-42.688z" fill="#EA5129" p-id="18759"></path><path d="M128.064 383.936h42.688v42.688h-42.688z" p-id="18760"></path><path d="M170.688 383.936h42.688v42.688h-42.688z m42.688 0h42.688v42.688h-42.688z" p-id="18761"></path><path d="M128 426.688h42.688v42.688H128z m42.688 0h42.688v42.688h-42.688z" fill="#EA5129" p-id="18762"></path><path d="M213.312 426.688H256v42.688h-42.688z" fill="#EA5129" p-id="18763"></path><path d="M213.312 469.312H256V512h-42.688z m0 42.688H256v42.688h-42.688z m0 42.688H256v42.688h-42.688z" fill="#EA5129" p-id="18764"></path><path d="M213.312 597.312H256V640h-42.688zM170.688 640h42.688v42.688h-42.688z" fill="#EA5129" p-id="18765"></path><path d="M213.312 640H256v42.688h-42.688zM256 640h42.688v42.688H256z m-85.312 42.688h42.688v42.688h-42.688z" fill="#EA5129" p-id="18766"></path><path d="M213.312 682.688H256v42.688h-42.688z m42.688 0h42.688v42.688H256zM213.312 768H256v42.688h-42.688zM256 768h42.688v42.688H256z m-42.688 42.688H256v42.688h-42.688z m42.688 0h42.688v42.688H256z" fill="#EA5129" p-id="18767"></path><path d="M213.312 853.312H256V896h-42.688z m42.688 0h42.688V896H256zM213.312 896H256v42.688h-42.688zM256 896h42.688v42.688H256z m-42.688 42.688H256v42.688h-42.688z m42.688 0h42.688v42.688H256z m-85.312-469.376h42.688V512h-42.688z m0 42.688h42.688v42.688h-42.688z m0 42.688h42.688v42.688h-42.688z m85.312 0h42.688v42.688H256z" fill="#EA5129" p-id="18768"></path><path d="M170.688 597.312h42.688V640h-42.688z m85.312 0h42.688V640H256z m-42.688 128H256V768h-42.688z m42.688 0h42.688V768H256z" fill="#EA5129" p-id="18769"></path><path d="M298.688 383.936h42.688v42.688h-42.688z" p-id="18770"></path><path d="M341.312 384H384v42.688h-42.688zM384 384h42.688v42.688H384z" p-id="18771"></path><path d="M298.688 426.688h42.688v42.688h-42.688z" fill="#FFFFFF" p-id="18772"></path><path d="M341.312 426.688H384v42.688h-42.688z m42.688 0h42.688v42.688H384z" fill="#FFFFFF" p-id="18773"></path><path d="M298.688 469.312h42.688V512h-42.688z m85.312 0h42.688V512H384zM298.688 512h42.688v42.688h-42.688zM384 512h42.688v42.688H384z m0 42.688h42.688v42.688H384zM341.312 640H384v42.688h-42.688zM384 640h42.688v42.688H384z m-42.688 42.688H384v42.688h-42.688z m42.688 0h42.688v42.688H384z" fill="#FFFFFF" p-id="18774"></path><path d="M341.312 725.312H384V768h-42.688z m42.688 0h42.688V768H384zM384 768h42.688v42.688H384z m-42.688 42.688H384v42.688h-42.688z" fill="#FFFFFF" p-id="18775"></path><path d="M341.312 853.312H384V896h-42.688z m42.688 0h42.688V896H384zM341.312 896H384v42.688h-42.688zM384 896h42.688v42.688H384z m-42.688 42.688H384v42.688h-42.688z m42.688 0h42.688v42.688H384z m-42.688-469.376H384V512h-42.688z m0 42.688H384v42.688h-42.688z m0 42.688H384v42.688h-42.688z" fill="#FFFFFF" p-id="18776"></path><path d="M341.312 597.312H384V640h-42.688z m42.688 0h42.688V640H384zM341.312 768H384v42.688h-42.688zM384 810.688h42.688v42.688H384z" fill="#FFFFFF" p-id="18777"></path><path d="M42.688 298.688h42.688v42.688H42.688z m256-256h42.688v42.688h-42.688z m128 0h42.688v42.688h-42.688z" p-id="18778"></path><path d="M469.312 42.688H512v42.688h-42.688z m-256 42.624H256V128h-42.688z m85.376 0h42.688V128h-42.688z m298.624-42.624H640v42.688h-42.688zM640 85.312h42.688V128H640z m42.688 0h42.688V128h-42.688z" p-id="18779"></path><path d="M725.312 42.688H768v42.688h-42.688z m42.688 0h42.688v42.688H768z m170.688 256h42.688v42.688h-42.688zM725.312 384H768v42.688h-42.688z m0 42.688H768v42.688h-42.688z" p-id="18780"></path><path d="M725.312 469.312H768V512h-42.688z m0 42.688H768v42.688h-42.688z m-42.624 42.688h42.688v42.688h-42.688z" p-id="18781"></path><path d="M682.688 597.312h42.688V640h-42.688z m0 42.688h42.688v42.688h-42.688z m0 42.688h42.688v42.688h-42.688z" p-id="18782"></path><path d="M682.688 725.312h42.688V768h-42.688z m128 0h42.688V768h-42.688z m0 42.688h42.688v42.688h-42.688z m0 42.688h42.688v42.688h-42.688z" p-id="18783"></path><path d="M853.312 469.312H896V512h-42.688z" fill="#EA5129" p-id="18784"></path><path d="M896 469.312h42.688V512H896zM896 384h42.688v42.688H896z" p-id="18785"></path><path d="M896 426.688h42.688v42.688H896zM853.312 512H896v42.688h-42.688z m0 42.688H896v42.688h-42.688z" p-id="18786"></path><path d="M853.312 597.312H896V640h-42.688z m0 42.688H896v42.688h-42.688z m0 42.688H896v42.688h-42.688zM85.312 384H128v42.688H85.312zM256 384h42.688v42.688H256z m170.688 0h42.688v42.688h-42.688zM85.312 426.688H128v42.688H85.312z m170.688 0h42.688v42.688H256z m170.688 0h42.688v42.688h-42.688z" p-id="18787"></path><path d="M426.688 469.312h42.688V512h-42.688z m0 42.688h42.688v42.688h-42.688z m128-128h42.688v42.688h-42.688z m0 42.688h42.688v42.688h-42.688z m0 85.312h42.688v42.688h-42.688zM128 554.688h42.688v42.688H128z m170.688 0h42.688v42.688h-42.688z m128 0h42.688v42.688h-42.688z" p-id="18788"></path><path d="M128 597.312h42.688V640H128z m170.688 0h42.688V640h-42.688z m128 0h42.688V640h-42.688zM128 640h42.688v42.688H128z m170.688 0h42.688v42.688h-42.688z m128 0h42.688v42.688h-42.688z m128 0h42.688v42.688h-42.688zM128 682.688h42.688v42.688H128z m170.688 0h42.688v42.688h-42.688z m128 0h42.688v42.688h-42.688z m128 0h42.688v42.688h-42.688z m-384 42.624h42.688V768h-42.688z" p-id="18789"></path><path d="M426.688 725.312h42.688V768h-42.688z m0 42.688h42.688v42.688h-42.688z m128-42.688h42.688V768h-42.688z m-128 85.376h42.688v42.688h-42.688z m-128-42.688h42.688v42.688h-42.688z m-128 42.688h42.688v42.688h-42.688z m128 0h42.688v42.688h-42.688z m256 0h42.688v42.688h-42.688z" p-id="18790"></path><path d="M170.688 853.312h42.688V896h-42.688z m128 0h42.688V896h-42.688z m256 0h42.688V896h-42.688z m-384 42.688h42.688v42.688h-42.688z m128 0h42.688v42.688h-42.688z m128 0h42.688v42.688h-42.688z m-256 42.688h42.688v42.688h-42.688z m128 0h42.688v42.688h-42.688z m128 0h42.688v42.688h-42.688z m128-42.688h42.688v42.688h-42.688z m0 42.688h42.688v42.688h-42.688z m128-85.376h42.688V896h-42.688z m0 42.688h42.688v42.688h-42.688z m0 42.688h42.688v42.688h-42.688z" p-id="18791"></path><path d="M682.688 810.688h42.688v42.688h-42.688z m128 85.312h42.688v42.688h-42.688z m0 42.688h42.688v42.688h-42.688zM554.688 768h42.688v42.688h-42.688z m128 0h42.688v42.688h-42.688z m-256 85.312h42.688V896h-42.688z m384 0h42.688V896h-42.688zM341.312 0H384v42.688h-42.688zM384 0h42.688v42.688H384zM170.688 85.312h42.688V128h-42.688zM256 128h42.688v42.688H256zM85.312 170.688H128v42.688H85.312z" p-id="18792"></path><path d="M85.312 213.312H128V256H85.312zM42.688 256h42.688v42.688H42.688zM128 128h42.688v42.688H128z" p-id="18793"></path><path d="M85.312 341.312H128V384H85.312z" fill="#FBCE6C" p-id="18794"></path><path d="M42.688 341.312h42.688V384H42.688z" p-id="18795"></path><path d="M128 341.312h42.688V384H128z" fill="#FBCE6C" p-id="18796"></path><path d="M170.688 341.312h42.688V384h-42.688z" fill="#FCDC9D" p-id="18797"></path><path d="M213.312 341.312H256V384h-42.688z m42.688 0h42.688V384H256z m42.688 0h42.688V384h-42.688z m85.312 0h42.688V384H384z m42.688 0h42.688V384h-42.688z" fill="#FCDC9D" p-id="18798"></path><path d="M469.312 341.312H512V384h-42.688z" fill="#FBCE6C" p-id="18799"></path><path d="M512 0h42.688v42.688H512z" p-id="18800"></path><path d="M512 341.312h42.688V384H512z" fill="#FBCE6C" p-id="18801"></path><path d="M554.688 0h42.688v42.688h-42.688z" p-id="18802"></path><path d="M554.688 341.312h42.688V384h-42.688z" fill="#FCDC9D" p-id="18803"></path><path d="M597.312 341.312H640V384h-42.688z m42.688 0h42.688V384H640z" fill="#FCDC9D" p-id="18804"></path><path d="M682.688 341.312h42.688V384h-42.688z" fill="#FBCE6C" p-id="18805"></path><path d="M725.312 341.312H768V384h-42.688z" fill="#FCDC9D" p-id="18806"></path><path d="M853.312 128H896v42.688h-42.688z" p-id="18807"></path><path d="M768 341.312h42.688V384H768z" fill="#FCDC9D" p-id="18808"></path><path d="M810.688 85.312h42.688V128h-42.688z" p-id="18809"></path><path d="M810.688 341.312h42.688V384h-42.688z" fill="#FCDC9D" p-id="18810"></path><path d="M853.312 170.688H896v42.688h-42.688z" p-id="18811"></path><path d="M853.312 341.312H896V384h-42.688z" fill="#FCDC9D" p-id="18812"></path><path d="M896 213.312h42.688V256H896z" p-id="18813"></path><path d="M896 341.312h42.688V384H896z" fill="#FBCE6C" p-id="18814"></path><path d="M938.688 341.312h42.688V384h-42.688z m0-85.312h42.688v42.688h-42.688zM213.312 981.312H256V1024h-42.688z m42.688 0h42.688V1024H256z m42.688 0h42.688V1024h-42.688z" p-id="18815"></path><path d="M341.312 981.312H384V1024h-42.688z m42.688 0h42.688V1024H384z m42.688 0h42.688V1024h-42.688z" p-id="18816"></path><path d="M469.312 981.312H512V1024h-42.688z m42.688 0h42.688V1024H512z m42.688 0h42.688V1024h-42.688z" p-id="18817"></path><path d="M597.312 981.312H640V1024h-42.688z m42.688 0h42.688V1024H640z m42.688 0h42.688V1024h-42.688z" p-id="18818"></path><path d="M725.312 981.312H768V1024h-42.688z m42.688 0h42.688V1024H768z" p-id="18819"></path><path d="M128 469.312h42.688V512H128z" fill="#EA5129" p-id="18820"></path><path d="M85.312 469.312H128V512H85.312z m170.688 0h42.688V512H256zM128 512h42.688v42.688H128z m128 0h42.688v42.688H256z m298.688-42.688h42.688V512h-42.688z m0 85.376h42.688v42.688h-42.688z" p-id="18821"></path><path d="M554.688 597.312h42.688V640h-42.688z m-256 128h42.688V768h-42.688z m-128 42.688h42.688v42.688h-42.688z" p-id="18822"></path><path d="M341.312 341.312H384V384h-42.688z" fill="#FBCE6C" p-id="18823"></path></svg>