<?xml version="1.0" standalone="no"?><!DOCTYPE svg PUBLIC "-//W3C//DTD SVG 1.1//EN" "http://www.w3.org/Graphics/SVG/1.1/DTD/svg11.dtd"><svg t="1741768390254" class="icon" viewBox="0 0 1024 1024" version="1.1" xmlns="http://www.w3.org/2000/svg" p-id="18245" xmlns:xlink="http://www.w3.org/1999/xlink" width="200" height="200"><path d="M673.36 973H388a103.46 103.46 0 0 1-100.57-78.62L172.12 430.8a40 40 0 1 1 77.64-19.3L365 875.07A23.6 23.6 0 0 0 388 893h285.36a23.61 23.61 0 0 0 22.93-17.9l116-463.66a40 40 0 0 1 77.61 19.42l-116 463.65A103.5 103.5 0 0 1 673.36 973z" fill="#90d7ec" p-id="18246"></path><path d="M654 604c-41.7 0-81.71-17.63-113.52-49.82a4.89 4.89 0 0 0-7 0C501.71 586.37 461.7 604 420 604c-74.6 0-140.74-56.16-166.23-140.4a4.93 4.93 0 0 0-4.73-3.51c-35.34 0-68.46-16.76-93.28-47.19S117.52 342.17 118 299.42c0.48-41.29 14.45-80.39 39.34-110.09s57.39-46.06 91.53-46.09h0.13a111.5 111.5 0 0 1 49 11.46 4.89 4.89 0 0 0 6.58-2.26c11.25-23.43 26.67-43.59 45.38-59.15C375.33 72.17 405.09 61 436 61c38.24 0 74.63 17.28 102.48 48.06a4.91 4.91 0 0 0 7.22 0.07c27.57-29.29 63.14-45.71 100.3-45.71 26.62 0 52.83 8.46 75.8 24.46 20.45 14.25 38 34.2 51 58a4.86 4.86 0 0 0 5.72 2.29 110.07 110.07 0 0 1 32.48-4.93h0.28c34.48 0.08 67.05 16.36 91.71 45.83s38.52 68.66 39 110.35c0.49 42.76-12.9 83.06-37.71 113.48-21.62 26.51-49.54 42.64-79.74 46.36a4.89 4.89 0 0 0-4.07 3.47c-11.41 38-31.82 71.95-58.44 96.78C730.83 588.62 693.48 604 654 604zM537 452.36c19.14 0 37.47 8.6 51.61 24.22 17.9 19.78 41.12 30.67 65.39 30.67 43.44 0 81.88-35.3 93.47-85.85 7.85-34.21 33.85-58.06 63.25-58.06h0.28c13.76 0 26.65-6.53 36.31-18.37s14.88-27.54 14.69-44.2c-0.39-33.45-23.21-60.71-50.89-60.79a43.93 43.93 0 0 0-15.49 2.84 63.58 63.58 0 0 1-22.74 4.25c-26.07 0-51-16.41-65.23-44.82-13.18-26.35-36.23-42.08-61.65-42.08-20.9 0-40.74 11-54.44 30.1-12.54 17.51-30.73 27.42-50 27.29-19.49-0.17-37.89-10.65-50.47-28.74-13.69-19.75-33.79-31.07-55.09-31.07-29.55 0-55.77 21.41-66.81 54.56-7.06 21.18-21.42 37.42-39.39 44.56-18.12 7.2-37.84 4.37-54.09-7.76A44.46 44.46 0 0 0 249 240c-26.76 0-50.57 28.44-50.95 60.79-0.19 16.66 5 32.35 14.68 44.2s22.56 18.37 36.32 18.37c0.72 0 1.46 0 2.2-0.06 34.38-1.73 65.94 24.47 76.73 63.71 13.2 48 50.2 80.26 92.07 80.26 24.27 0 47.49-10.89 65.39-30.67 14.09-15.6 32.42-24.24 51.56-24.24z m273.78 7.73z" fill="#90d7ec" p-id="18247"></path><path d="M387.91 927.41c-13-2.75-23.14-14.52-24.42-30l-29.15-355.8c-1.59-19.43 11.36-37.36 28.93-40s33.11 10.88 34.7 30.31l29.15 355.8c1.6 19.43-11.36 37.36-28.93 40.05a28.5 28.5 0 0 1-10.28-0.36zM673.55 936.41c13-2.75 23.15-14.52 24.42-30l29.15-355.8c1.6-19.43-11.36-37.36-28.93-40s-33.1 10.88-34.7 30.31l-29.15 355.8c-1.59 19.43 11.36 37.36 28.93 40.05a28.5 28.5 0 0 0 10.28-0.36zM531.83 934.11a40 40 0 0 1-40-39.83l-1.66-383.51A40 40 0 0 1 530 470.6h0.18a40 40 0 0 1 40 39.82l1.66 383.52A40 40 0 0 1 532 934.11z" fill="#90d7ec" p-id="18248"></path></svg>