<?xml version="1.0" standalone="no"?><!DOCTYPE svg PUBLIC "-//W3C//DTD SVG 1.1//EN" "http://www.w3.org/Graphics/SVG/1.1/DTD/svg11.dtd"><svg t="1741698152471" class="icon" viewBox="0 0 1024 1024" version="1.1" xmlns="http://www.w3.org/2000/svg" p-id="21662" xmlns:xlink="http://www.w3.org/1999/xlink" width="200" height="200"><path d="M896 952H176l-48 64h736z" fill="#FFFFFF" p-id="21663"></path><path d="M176 952l-48 64h32l48-64zM224 8h672v944H224z" fill="#D7E9FF" p-id="21664"></path><path d="M176 8h48v944H176z" fill="#94C1FF" p-id="21665"></path><path d="M176 952l-48 64V72L176 8z" fill="#656D78" p-id="21666"></path><path d="M176 952l-48 64V72L176 8z" fill="#5C9EFF" p-id="21667"></path><path d="M368 263.438v-32.72l150.078-31.758-24.64 37.916zM612.156 179.118L587.36 217.04l-46.876 9.92 24.64-37.92z" fill="#94C1FF" p-id="21668"></path><path d="M565.124 189.04l-24.64 37.92-47.046 9.916 24.64-37.916zM659.046 169.196l-24.64 37.922-47.046 9.922 24.796-37.922z" fill="#FFFFFF" p-id="21669"></path><path d="M705.922 159.282l-24.64 37.914-46.876 9.922 24.64-37.922z" fill="#94C1FF" p-id="21670"></path><path d="M720 279.438h32v32h-64zM737.282 152.554L744 183.914l-62.718 13.282 24.64-37.914z" fill="#FFFFFF" p-id="21671"></path><path d="M672 279.438h48l-32 32h-48z" fill="#94C1FF" p-id="21672"></path><path d="M624 279.438h48l-32 32h-48z" fill="#FFFFFF" p-id="21673"></path><path d="M576 279.438h48l-32 32h-48z" fill="#94C1FF" p-id="21674"></path><path d="M528 279.438h48l-32 32h-48z" fill="#FFFFFF" p-id="21675"></path><path d="M480 279.438h48l-32 32h-48z" fill="#94C1FF" p-id="21676"></path><path d="M416 279.438h64l-32 32h-80v-48h48zM368 519.438v-208h384v208c0 8.796-7.204 16-16 16H384c-8.796 0-16-7.204-16-16z" fill="#FFFFFF" p-id="21677"></path><path d="M864 8h32v944h-32z" fill="#94C1FF" p-id="21678"></path><path d="M896 960H176c-4.422 0-8-3.578-8-8V8c0-4.422 3.578-8 8-8h720c4.422 0 8 3.578 8 8v944c0 4.422-3.578 8-8 8z m-712-16h704V16H184v928zM880 992H192c-4.422 0-8-3.578-8-8s3.578-8 8-8h688c4.422 0 8 3.578 8 8s-3.578 8-8 8zM864 1024H128c-4.422 0-8-3.578-8-8s3.578-8 8-8h736c4.422 0 8 3.578 8 8s-3.578 8-8 8z" fill="#116FFF" p-id="21679"></path><path d="M128 1024c-4.422 0-8-3.578-8-8V72c0-4.422 3.578-8 8-8s8 3.578 8 8v944c0 4.422-3.578 8-8 8z" fill="#116FFF" p-id="21680"></path><path d="M128 1024c-1.672 0-3.36-0.516-4.796-1.594a8.02 8.02 0 0 1-1.61-11.204l48-64a8.028 8.028 0 0 1 11.204-1.61 8.02 8.02 0 0 1 1.61 11.204l-48 64A8.026 8.026 0 0 1 128 1024zM128 80a8.01 8.01 0 0 1-6.406-12.798l48-64A8.026 8.026 0 0 1 180.798 1.6a8.01 8.01 0 0 1 1.61 11.196l-48 64A8.002 8.002 0 0 1 128 80zM368.016 528c-4.422 0-8-3.578-8-8V264c0-4.422 3.578-8 8-8s8 3.578 8 8v256c0 4.422-3.578 8-8 8zM751.984 528c-4.422 0-8-3.578-8-8V280c0-4.422 3.578-8 8-8s8 3.578 8 8v240c0 4.422-3.578 8-8 8z" fill="#116FFF" p-id="21681"></path><path d="M384 543.984c-13.218 0-23.984-10.766-23.984-23.984 0-4.422 3.578-8 8-8s8 3.578 8 8a7.988 7.988 0 0 0 7.984 7.984c4.422 0 8 3.578 8 8s-3.578 8-8 8zM736 543.984c-4.422 0-8-3.578-8-8s3.578-8 8-8a7.988 7.988 0 0 0 7.984-7.984c0-4.422 3.578-8 8-8s8 3.578 8 8c0 13.218-10.766 23.984-23.984 23.984z" fill="#116FFF" p-id="21682"></path><path d="M736 543.984H384c-4.422 0-8-3.578-8-8s3.578-8 8-8h352c4.422 0 8 3.578 8 8s-3.578 8-8 8zM751.984 288H416c-4.422 0-8-3.578-8-8s3.578-8 8-8h335.984c4.422 0 8 3.578 8 8s-3.578 8-8 8zM751.984 320H368.016c-4.422 0-8-3.578-8-8s3.578-8 8-8h383.968c4.422 0 8 3.578 8 8s-3.578 8-8 8z" fill="#116FFF" p-id="21683"></path><path d="M688 320a8 8 0 0 1-5.656-13.656l32-32a8 8 0 1 1 11.312 11.312l-32 32A7.976 7.976 0 0 1 688 320zM640 320a8 8 0 0 1-5.656-13.656l32-32a8 8 0 1 1 11.312 11.312l-32 32A7.976 7.976 0 0 1 640 320zM592 320a8 8 0 0 1-5.656-13.656l32-32a8 8 0 1 1 11.312 11.312l-32 32A7.976 7.976 0 0 1 592 320zM544 320a8 8 0 0 1-5.656-13.656l32-32a8 8 0 1 1 11.312 11.312l-32 32A7.976 7.976 0 0 1 544 320zM496 320a8 8 0 0 1-5.656-13.656l32-32a8 8 0 1 1 11.312 11.312l-32 32A7.976 7.976 0 0 1 496 320zM448 320a8 8 0 0 1-5.656-13.656l32-32a8 8 0 1 1 11.312 11.312l-32 32A7.976 7.976 0 0 1 448 320zM446.516 255.422a8 8 0 0 1-1.64-15.828l289.578-61.312-3.344-15.672-361.47 75.936c-4.25 0.938-8.546-1.86-9.468-6.18a8 8 0 0 1 6.188-9.476l369.28-77.578c4.218-0.882 8.546 1.852 9.468 6.164l6.656 31.312c0.438 2.078 0.032 4.242-1.124 6.024s-2.968 3.032-5.046 3.468l-297.406 62.968c-0.564 0.12-1.11 0.174-1.672 0.174z" fill="#116FFF" p-id="21684"></path><path d="M681.312 205.704a8.002 8.002 0 0 1-6.704-12.366L699.296 155.4c2.422-3.704 7.39-4.742 11.062-2.336a8.002 8.002 0 0 1 2.344 11.07l-24.688 37.938a7.988 7.988 0 0 1-6.702 3.632zM634.376 215.64c-1.5 0-3.016-0.414-4.36-1.29a8.006 8.006 0 0 1-2.344-11.07l24.656-37.938c2.422-3.704 7.406-4.734 11.062-2.352a8.006 8.006 0 0 1 2.344 11.07L641.078 212a7.976 7.976 0 0 1-6.702 3.64zM587.406 225.594a8.002 8.002 0 0 1-6.704-12.366l24.688-37.938c2.422-3.696 7.406-4.75 11.062-2.336a8.002 8.002 0 0 1 2.344 11.07l-24.688 37.938a7.988 7.988 0 0 1-6.702 3.632zM540.438 235.546a8.002 8.002 0 0 1-6.704-12.366l24.688-37.938c2.422-3.696 7.39-4.75 11.062-2.336a8.002 8.002 0 0 1 2.344 11.07l-24.688 37.938a7.986 7.986 0 0 1-6.702 3.632zM493.484 245.484c-1.5 0-3.016-0.414-4.36-1.296a7.994 7.994 0 0 1-2.344-11.062l24.672-37.938c2.422-3.704 7.406-4.742 11.062-2.344a7.994 7.994 0 0 1 2.344 11.062l-24.672 37.938a7.972 7.972 0 0 1-6.702 3.64zM446.532 255.422c-1.5 0-3.016-0.414-4.36-1.296a7.994 7.994 0 0 1-2.344-11.062l24.672-37.938c2.422-3.71 7.39-4.75 11.062-2.344a7.994 7.994 0 0 1 2.344 11.062l-24.672 37.938a7.98 7.98 0 0 1-6.702 3.64z" fill="#116FFF" p-id="21685"></path><path d="M416 288c-4.422 0-8-3.578-8-8v-16c0-4.422 3.578-8 8-8s8 3.578 8 8v16c0 4.422-3.578 8-8 8z" fill="#116FFF" p-id="21686"></path><path d="M416 272h-47.984c-4.422 0-8-3.578-8-8s3.578-8 8-8H416c4.422 0 8 3.578 8 8s-3.578 8-8 8z" fill="#116FFF" p-id="21687"></path><path d="M704 400H416c-4.422 0-8-3.578-8-8s3.578-8 8-8h288c4.422 0 8 3.578 8 8s-3.578 8-8 8z" fill="#116FFF" p-id="21688"></path><path d="M704 464H416c-4.422 0-8-3.578-8-8s3.578-8 8-8h288c4.422 0 8 3.578 8 8s-3.578 8-8 8z" fill="#116FFF" p-id="21689"></path><path d="M752 656H368c-4.422 0-8-3.578-8-8s3.578-8 8-8h384c4.422 0 8 3.578 8 8s-3.578 8-8 8z" fill="#116FFF" p-id="21690"></path><path d="M752 704H368c-4.422 0-8-3.578-8-8s3.578-8 8-8h384c4.422 0 8 3.578 8 8s-3.578 8-8 8z" fill="#116FFF" p-id="21691"></path><path d="M672 752H448c-4.422 0-8-3.578-8-8s3.578-8 8-8h224c4.422 0 8 3.578 8 8s-3.578 8-8 8z" fill="#116FFF" p-id="21692"></path><path d="M352 896h-64c-4.422 0-8-3.578-8-8s3.578-8 8-8h64c4.422 0 8 3.578 8 8s-3.578 8-8 8z" fill="#116FFF" p-id="21693"></path><path d="M832 896h-64c-4.422 0-8-3.578-8-8s3.578-8 8-8h64c4.422 0 8 3.578 8 8s-3.578 8-8 8z" fill="#116FFF" p-id="21694"></path><path d="M224 944c-4.422 0-8-3.578-8-8V24c0-4.422 3.578-8 8-8s8 3.578 8 8v912c0 4.422-3.578 8-8 8z" fill="#116FFF" p-id="21695"></path></svg>