<?xml version="1.0" standalone="no"?><!DOCTYPE svg PUBLIC "-//W3C//DTD SVG 1.1//EN" "http://www.w3.org/Graphics/SVG/1.1/DTD/svg11.dtd"><svg t="1741697139687" class="icon" viewBox="0 0 1276 1024" version="1.1" xmlns="http://www.w3.org/2000/svg" p-id="3673" xmlns:xlink="http://www.w3.org/1999/xlink" width="249.21875" height="200"><path d="M633.997416 564.418028a44.751843 44.751843 0 0 1 0 76.194878L466.119632 740.467888a42.183476 42.183476 0 0 1-63.041727-38.058524V502.62157a42.183476 42.183476 0 0 1 63.041727-38.058524z" fill="#02A7F0" p-id="3674"></path><path d="M1155.764992 19.457323H468.143194a94.796078 94.796078 0 0 0-99.932812 89.11454v22.570495a22.259178 22.259178 0 0 0 25.29452 22.570494 26.228472 26.228472 0 0 0 25.29452-26.851105v-22.570495a48.254161 48.254161 0 0 1 50.58904-45.14099h687.621799a48.40982 48.40982 0 0 1 50.58904 45.14099v613.216995a48.254161 48.254161 0 0 1-50.58904 45.140989h-25.29452a22.259178 22.259178 0 0 0-25.29452 22.570495 22.803983 22.803983 0 0 0 25.29452 22.570495h25.29452a94.796078 94.796078 0 0 0 99.932811-89.11454V104.291252a97.286615 97.286615 0 0 0-101.17808-84.833929z" fill="#02A7F0" p-id="3675"></path><path d="M916.439918 217.688531H123.748575A116.743939 116.743939 0 0 0 11.674394 332.564566v217.922019c0 15.565858 15.565858 23.348788 29.886448 23.348788a32.221327 32.221327 0 0 0 29.886448-30.509083v-210.139089a52.223455 52.223455 0 0 1 49.655089-53.780041h795.18188a51.522992 51.522992 0 0 1 52.223456 51.133845v568.153834a52.223455 52.223455 0 0 1-49.655089 53.780041H123.748575a51.133845 51.133845 0 0 1-52.223455-51.133845V523.55765a27.629399 27.629399 0 0 0-29.886449-30.509083 32.221327 32.221327 0 0 0-29.886448 30.509083v374.436726a116.743939 116.743939 0 0 0 112.074181 114.876035h792.691343a116.743939 116.743939 0 0 0 112.074181-114.876035V333.031542a116.743939 116.743939 0 0 0-112.074181-114.876035z" fill="#1DA5ED" p-id="3676"></path></svg>