<?xml version="1.0" standalone="no"?><!DOCTYPE svg PUBLIC "-//W3C//DTD SVG 1.1//EN" "http://www.w3.org/Graphics/SVG/1.1/DTD/svg11.dtd"><svg t="1741699565390" class="icon" viewBox="0 0 1269 1024" version="1.1" xmlns="http://www.w3.org/2000/svg" p-id="10281" xmlns:xlink="http://www.w3.org/1999/xlink" width="247.8515625" height="200"><path d="M 815.182 1024 H 78.7692 c -34.8911 0 -63.4383 -28.5472 -63.4383 -63.4383 v -359.484 c 0 -34.8911 28.5472 -63.4383 63.4383 -63.4383 h 736.413 c 34.8911 0 63.4383 28.5472 63.4383 63.4383 v 359.484 c 0 34.8911 -28.5472 63.4383 -63.4383 63.4383 Z" p-id="10282"></path><path d="M 192.43 564.601 c -105.202 0 -190.315 -85.1131 -190.315 -190.315 s 85.1131 -190.315 190.315 -190.315 s 190.315 85.1131 190.315 190.315 s -85.6417 190.315 -190.315 190.315 Z m 0 -354.197 c -90.3996 0 -163.882 73.4827 -163.882 163.882 s 73.4827 163.882 163.882 163.882 s 163.882 -73.4827 163.882 -163.882 s -74.0114 -163.882 -163.882 -163.882 Z" p-id="10283"></path><path d="M 630.682 550.856 c -151.723 0 -274.899 -123.176 -274.899 -274.899 s 123.176 -274.899 274.899 -274.899 s 274.899 123.176 274.899 274.899 s -123.176 274.899 -274.899 274.899 Z m 0 -523.366 c -136.921 0 -248.467 111.546 -248.467 248.467 s 111.546 248.467 248.467 248.467 s 248.467 -111.546 248.467 -248.467 s -111.546 -248.467 -248.467 -248.467 Z" p-id="10284"></path><path d="M 766.018 197.187 m -112.074 0 a 112.074 112.074 0 1 0 224.149 0 a 112.074 112.074 0 1 0 -224.149 0 Z" fill="#2c2c2c" p-id="10285"></path><path d="M 322.478 368.999 m -46.5214 0 a 46.5214 46.5214 0 1 0 93.0428 0 a 46.5214 46.5214 0 1 0 -93.0428 0 Z" fill="#2c2c2c" p-id="10286"></path><path d="M 776.591 752.273 l 326.707 188.2 v -376.929 Z" p-id="10287"></path><path d="M 1105.94 945.231 L 771.833 752.273 l 334.108 -192.958 v 385.916 Z m -324.064 -192.958 l 318.249 183.971 v -367.414 l -318.249 183.442 Z" p-id="10288"></path><path d="M 1021.36 752.273 a 200.888 122.647 90 1 0 245.295 0 a 200.888 122.647 90 1 0 -245.295 0 Z" fill="#dbdbdb" p-id="10289"></path><path d="M 1144 955.275 c -69.2535 0 -125.291 -91.4569 -125.291 -203.531 s 56.0372 -203.531 125.291 -203.531 s 125.291 91.4569 125.291 203.531 s -56.0372 203.531 -125.291 203.531 Z m 0 -401.247 c -66.0816 0 -120.004 88.8136 -120.004 198.245 s 53.9226 198.245 120.004 198.245 s 120.004 -88.8136 120.004 -198.245 s -53.3939 -198.245 -120.004 -198.245 Z" p-id="10290"></path></svg>