<?xml version="1.0" standalone="no"?><!DOCTYPE svg PUBLIC "-//W3C//DTD SVG 1.1//EN" "http://www.w3.org/Graphics/SVG/1.1/DTD/svg11.dtd"><svg t="1741697169354" class="icon" viewBox="0 0 1034 1024" version="1.1" xmlns="http://www.w3.org/2000/svg" p-id="3820" xmlns:xlink="http://www.w3.org/1999/xlink" width="201.953125" height="200"><path d="M176.136121 1012.96696v0.255984l5.375677-0.511969H176.136121m693.718377 0v-0.255985h-6.143632l6.143632 0.255985M814.049846 257.812269a86.625202 86.625202 0 0 0-13.82317 103.673779 99.680419 99.680419 0 0 0 13.82317 17.662941 84.986901 84.986901 0 0 0 121.592705 0 88.519489 88.519489 0 0 0 13.82317-16.894987 85.703658 85.703658 0 0 0-13.82317-104.441733 85.601264 85.601264 0 0 0-121.592705 0m60.924345-5.119693a64.456933 64.456933 0 0 1 46.077235 110.073396A64.528608 64.528608 0 1 1 829.408925 271.891424a62.818631 62.818631 0 0 1 45.309281-18.942863z" fill="#233E49" p-id="3821"></path><path d="M228.868957 900.077733H175.112182l-37.629742 112.633242 38.653681-1.791893a8.652281 8.652281 0 0 1 0.767954-3.3278l51.964882-107.513549m642.521449 0h-53.756775l51.708898 107.00158a8.549887 8.549887 0 0 1 1.279923 4.095754l38.653681 1.791893z" fill="#AD5114" p-id="3822"></path><path d="M228.868957 900.077733l15.871048-32.254065H186.119522l-11.00734 32.254065h53.756775m573.405596-32.254065l15.359078 32.254065h53.756775l-10.751355-32.254065z" fill="#993F0D" p-id="3823"></path><path d="M1006.038327 164.63386a94.304742 94.304742 0 0 0-68.859869-28.158311H525.299171l84.730916-70.907745h-0.255984l55.292682-46.589205a8.191509 8.191509 0 0 0 3.83977-6.911585 9.573826 9.573826 0 0 0-3.071816-8.191509 12.082475 12.082475 0 0 0-6.655601-3.83977 9.676219 9.676219 0 0 0-7.935523 3.071816l-75.0035 62.460253L490.48526 136.475549H359.933093L206.598293 7.971259a9.061856 9.061856 0 0 0-7.679539-2.815831 13.413595 13.413595 0 0 0-7.679539 3.583785 10.239386 10.239386 0 0 0-2.559847 7.679539 11.212127 11.212127 0 0 0 3.583785 7.423555l134.647921 112.633242H97.292852a94.151151 94.151151 0 0 0-69.115853 28.158311A94.202348 94.202348 0 0 0 0.018688 233.493728v537.567746a92.615243 92.615243 0 0 0 22.782633 62.716237 73.262804 73.262804 0 0 0 5.119693 5.887647 97.83733 97.83733 0 0 0 23.550587 17.406955 95.482271 95.482271 0 0 0 45.565266 10.751355H162.82492l-47.357159 141.047537a10.239386 10.239386 0 0 0 6.143631 14.079156 4.402936 4.402936 0 0 0 3.327801 1.023938 13.260004 13.260004 0 0 0 7.16757-2.047877 6.655601 6.655601 0 0 0 3.583785-4.351739l1.279923-3.839769h0.255985l0.255984-0.767954 37.629742-112.633242 11.00734-32.254065H244.740005l-15.871048 32.254065-51.964882 107.513549a8.652281 8.652281 0 0 0-0.767954 3.3278 3.532588 3.532588 0 0 0 0 1.791893h5.375677l1.791893-0.255985-1.791893 0.255985-5.375677 0.511969a4.65892 4.65892 0 0 0 0.255985 2.559846 9.113053 9.113053 0 0 0 5.631662 5.887647 10.239386 10.239386 0 0 0 8.191508 0 8.549887 8.549887 0 0 0 5.887647-5.119693l71.675699-148.727076h510.945344l71.16373 147.447153a11.109733 11.109733 0 0 0 5.887647 5.631662 10.239386 10.239386 0 0 0 7.935523-0.511969 8.49869 8.49869 0 0 0 5.631663-5.887647 5.375677 5.375677 0 0 0 0.511969-2.047877l-6.143632-0.255985h6.143632a2.201468 2.201468 0 0 1 0.767954-1.279923 8.549887 8.549887 0 0 0-1.279923-4.095754l-51.708898-107.00158-15.359078-32.254065h58.364498l10.751355 32.254065 37.885727 112.633242v0.511969l1.023938 3.071816a9.676219 9.676219 0 0 0 3.83977 5.119693 9.778613 9.778613 0 0 0 5.887646 2.047877 10.239386 10.239386 0 0 0 4.351739-1.023939 11.212127 11.212127 0 0 0 6.143632-14.079155l-46.589205-141.047537h53.244805A96.147831 96.147831 0 0 0 1034.196637 771.061474v-537.567746a94.202348 94.202348 0 0 0-28.15831-68.859868m-68.859869-6.399616a71.675699 71.675699 0 0 1 53.50079 22.014679 72.187669 72.187669 0 0 1 22.270664 53.244805v537.567746a75.259484 75.259484 0 0 1-3.071816 21.758694H54.031447a31.383717 31.383717 0 0 0-23.038617 9.471432 21.349119 21.349119 0 0 0-2.047878 1.791893 74.133152 74.133152 0 0 1-7.16757-33.022019v-537.567746a72.546047 72.546047 0 0 1 22.01468-53.244805A73.00682 73.00682 0 0 1 97.292852 158.234244h839.885606m43.00542 537.567745v-43.261404A52.476851 52.476851 0 0 0 927.195057 599.039795h-87.034777a52.476851 52.476851 0 0 0-53.50079 53.244806v44.029358a52.886427 52.886427 0 0 0 53.50079 53.50079h87.034777a52.886427 52.886427 0 0 0 52.988821-54.01276m-43.00542-73.211607a28.926264 28.926264 0 0 1 12.287263 7.423555 33.175609 33.175609 0 0 1 8.191509 12.031278h-20.478772v-19.454833m0 41.213527h21.758695v21.50271h-21.758695v-21.50271m-127.480351-21.758694a28.414295 28.414295 0 0 1 7.679539-12.031278 28.926264 28.926264 0 0 1 12.287263-7.423555v19.454833h-19.966802m-1.791892 43.261404v-21.50271h21.758694v21.50271h-21.758694m86.266824-64.764114h21.758694v21.50271h-21.758694v-21.50271m-43.261405 0h22.01468v21.50271h-22.01468v-21.50271m0 43.261404h22.01468v21.50271h-22.01468v-21.50271m43.261405 21.50271v-21.50271h21.758694v21.50271h-21.758694m21.758694 21.50271v21.246725h-21.758694v-21.246725h21.758694m-43.005419 21.246725h-22.01468v-21.246725h22.01468v21.246725m-43.261405-21.246725V727.032116a29.591824 29.591824 0 0 1-12.287263-7.935524 28.875067 28.875067 0 0 1-7.679539-12.031278h19.966802m127.736336 0a31.076535 31.076535 0 0 1-7.935524 12.031278 29.591824 29.591824 0 0 1-12.287263 7.935524v-19.966802H957.401245m-257.520549-462.308262l-3.3278-3.3278a72.443653 72.443653 0 0 0-50.17299-18.942864H183.303691A75.157091 75.157091 0 0 0 108.044206 298.001857v376.553407a71.675699 71.675699 0 0 0 21.758695 53.244806 73.262804 73.262804 0 0 0 53.50079 22.014679h463.076215a72.802032 72.802032 0 0 0 53.50079-22.014679 71.675699 71.675699 0 0 0 21.758695-53.244806V298.001857a73.569986 73.569986 0 0 0-17.918925-49.149051c-1.382317-1.535908-2.66224-2.867028-3.83977-4.095754m0.51197 52.476852v377.32136a51.862488 51.862488 0 0 1-15.615064 38.141712 52.579245 52.579245 0 0 1-38.397696 15.359078H183.303691a53.296002 53.296002 0 0 1-54.012759-53.50079V298.001857a59.900406 59.900406 0 0 1 1.791892-14.847109 52.937624 52.937624 0 0 1 14.079155-23.550587 51.760094 51.760094 0 0 1 38.141712-15.359078h463.076215a52.886427 52.886427 0 0 1 54.01276 52.988821z" fill="#324D5B" p-id="3824"></path><path d="M990.679248 180.248923a71.675699 71.675699 0 0 0-53.50079-22.014679H97.292852a73.00682 73.00682 0 0 0-53.50079 22.014679 72.546047 72.546047 0 0 0-22.01468 53.244805v537.567746a74.133152 74.133152 0 0 0 7.16757 33.022019 21.349119 21.349119 0 0 1 2.047878-1.791893 31.383717 31.383717 0 0 1 23.038617-9.471432h955.846649a75.259484 75.259484 0 0 0 3.071816-21.758694v-537.567746a72.187669 72.187669 0 0 0-22.270664-53.244805m-182.773033 10.239385a10.239386 10.239386 0 0 1 3.3278-7.935524 9.625022 9.625022 0 0 1 7.423555-2.815831h109.049457a73.109213 73.109213 0 0 1 52.98882 21.246726 70.293382 70.293382 0 0 1 21.50271 51.964882v227.82633a10.853749 10.853749 0 0 1-3.3278 7.935524 11.212127 11.212127 0 0 1-7.935524 2.815831 9.471432 9.471432 0 0 1-7.423555-2.815831 10.853749 10.853749 0 0 1-3.3278-7.935524V252.948561a49.302642 49.302642 0 0 0-15.103094-36.605804 51.196928 51.196928 0 0 0-37.373757-15.359078h-109.049457a9.471432 9.471432 0 0 1-7.423555-2.815831 10.239386 10.239386 0 0 1-3.3278-7.935524m-64.252145-10.751355a9.625022 9.625022 0 0 1 7.423554 2.815831 11.109733 11.109733 0 0 1 0 15.871048 9.471432 9.471432 0 0 1-7.423554 2.815831H204.806401a9.369038 9.369038 0 0 1-10.495371-10.751355 11.212127 11.212127 0 0 1 2.815832-7.935524 11.109733 11.109733 0 0 1 7.679539-2.559847h539.103654m45.053296 138.743676a86.062036 86.062036 0 0 1 86.01084-86.01084 87.034778 87.034778 0 0 1 86.010839 86.01084 82.939024 82.939024 0 0 1-11.775293 43.773373 75.413075 75.413075 0 0 1-127.992321 41.725497 73.928364 73.928364 0 0 1-21.50271-42.493451 83.246205 83.246205 0 0 1-11.263324-43.005419m-88.570686-73.723577a20.990741 20.990741 0 0 1 3.583785 4.095754 73.569986 73.569986 0 0 1 17.918925 49.149051v376.553407a71.675699 71.675699 0 0 1-21.758694 53.244806 72.802032 72.802032 0 0 1-53.50079 22.014679H183.303691a73.262804 73.262804 0 0 1-53.50079-22.014679 71.675699 71.675699 0 0 1-21.758695-53.244806V298.001857a75.157091 75.157091 0 0 1 75.259485-75.515469h463.076215a72.443653 72.443653 0 0 1 50.17299 18.942864 23.601784 23.601784 0 0 1 3.583785 3.3278m232.946023 275.951443a58.876467 58.876467 0 0 1 2.047877 15.871048 53.807972 53.807972 0 0 1-16.639001 39.933604 55.292682 55.292682 0 0 1-78.587285 0 54.268744 54.268744 0 0 1-16.639002-39.933604 53.347199 53.347199 0 0 1 2.303862-15.871048 56.316621 56.316621 0 0 1-2.303862-16.383017 53.091215 53.091215 0 0 1 16.639002-39.16565 52.476851 52.476851 0 0 1 39.16565-16.383017 53.756775 53.756775 0 0 1 39.421635 16.383017 53.091215 53.091215 0 0 1 16.639001 39.16565 62.460252 62.460252 0 0 1-2.047877 16.383017m47.101174 131.83209v43.261404a52.886427 52.886427 0 0 1-52.988821 54.01276h-87.034777A52.886427 52.886427 0 0 1 786.65949 696.313959v-44.029358A52.476851 52.476851 0 0 1 840.16028 599.039795h87.034777a52.476851 52.476851 0 0 1 52.988821 53.50079m-30.718157 66.556007a31.076535 31.076535 0 0 0 7.935524-12.031278h-20.222787v19.966802a29.591824 29.591824 0 0 0 12.287263-7.935524m-119.800812 7.935524v-19.966802h-19.966802a28.875067 28.875067 0 0 0 7.679539 12.031278 29.591824 29.591824 0 0 0 12.287263 7.935524m21.246725 1.279923h22.01468v-21.246725h-22.01468v21.246725m65.020099 0v-21.246725h-21.758694v21.246725h21.758694m-21.758694-64.252145v21.50271h21.758694v-21.50271h-21.758694m-21.246725 0h-22.01468v21.50271h22.01468v-21.50271m0-43.261404h-22.01468v21.50271h22.01468v-21.50271m43.005419 0h-21.758694v21.50271h21.758694v-21.50271m-108.025518 43.261404v21.50271h21.758694v-21.50271h-21.758694m9.471431-33.789973a28.414295 28.414295 0 0 0-7.679539 12.031279h19.966802v-19.454833a28.926264 28.926264 0 0 0-12.287263 7.423554m141.559507 33.789973h-21.758695v21.50271h21.758695v-21.50271m-9.471432-33.789973a28.926264 28.926264 0 0 0-12.287263-7.423554v19.454833h20.478772a33.175609 33.175609 0 0 0-8.191509-12.287263z" fill="#5A6E7F" p-id="3825"></path><path d="M933.082704 520.708495a62.460252 62.460252 0 0 0 2.047877-16.383017 53.091215 53.091215 0 0 0-16.639001-39.16565 53.756775 53.756775 0 0 0-39.421635-16.383017 52.476851 52.476851 0 0 0-39.16565 16.383017 53.091215 53.091215 0 0 0-16.639002 39.16565 56.316621 56.316621 0 0 0 2.303862 16.383017 52.988821 52.988821 0 0 0 14.33514 23.294602 54.729516 54.729516 0 0 0 78.587285 0 55.036698 55.036698 0 0 0 14.591124-23.294602m-40.957542-16.383017a12.696838 12.696838 0 0 0-13.055217-12.799232 13.515989 13.515989 0 0 0-9.471432 3.583785 13.157611 13.157611 0 0 0-3.3278 9.215447 11.109733 11.109733 0 0 1-3.3278 8.191509 9.471432 9.471432 0 0 1-7.423555 2.815831 11.212127 11.212127 0 0 1-7.935524-2.815831 11.519309 11.519309 0 0 1-3.071816-8.191509 33.124413 33.124413 0 0 1 10.239386-24.318541 33.892366 33.892366 0 0 1 24.574526-10.239385 34.50673 34.50673 0 0 1 34.557926 34.301941 10.546567 10.546567 0 0 1-3.3278 7.67954 10.751355 10.751355 0 0 1-7.423555 3.3278 12.184869 12.184869 0 0 1-8.191508-2.815831 13.055217 13.055217 0 0 1-2.559847-8.191509M294.65701 318.480629a9.932204 9.932204 0 0 0-14.847109 0L167.432643 430.601901a10.239386 10.239386 0 0 0-2.815831 7.423555 11.416915 11.416915 0 0 0 2.815831 7.679539 11.263324 11.263324 0 0 0 7.935524 3.071816 10.700158 10.700158 0 0 0 7.423555-3.071816L294.65701 333.839707a11.109733 11.109733 0 0 0 3.3278-7.679539 11.263324 11.263324 0 0 0-3.3278-7.679539m294.894306 299.246045a11.6729 11.6729 0 0 1-7.679539 3.83977l-20.734756 3.3278a12.184869 12.184869 0 0 0-7.16757 3.583785 7.423555 7.423555 0 0 0-0.511969 12.031278 13.106414 13.106414 0 0 0 7.679539 3.583785l20.734756 3.3278a13.925564 13.925564 0 0 1 7.935524 4.351739 10.956143 10.956143 0 0 1 3.839769 7.423555l3.071816 20.478771a17.560546 17.560546 0 0 0 3.83977 7.679539 9.113053 9.113053 0 0 0 6.143631 2.815831 7.986721 7.986721 0 0 0 5.887647-2.559846 12.696838 12.696838 0 0 0 2.559846-7.935524l3.3278-22.782633a14.898306 14.898306 0 0 1 4.351739-7.16757 14.232746 14.232746 0 0 1 7.16757-4.607723l19.966802-1.023939c8.345099-2.201468 12.543247-5.119693 12.543248-9.471432a8.037918 8.037918 0 0 0-2.815831-6.143631 12.850429 12.850429 0 0 0-7.935524-3.583785l-20.478771-3.3278a20.478771 20.478771 0 0 1-8.191509-4.095755 11.928884 11.928884 0 0 1-3.583785-7.679539l-3.3278-20.478771a12.440854 12.440854 0 0 0-3.583785-7.423555 7.935524 7.935524 0 0 0-5.887647-3.3278 8.089115 8.089115 0 0 0-6.143631 2.815831 16.280623 16.280623 0 0 0-3.83977 7.935524l-3.071816 20.478771a16.946183 16.946183 0 0 1-4.095754 7.935524m285.16689-347.627142a47.305962 47.305962 0 0 0-34.301942 14.079155 46.742795 46.742795 0 0 0-14.33514 34.301942 9.471432 9.471432 0 0 0 3.327801 7.679539 10.239386 10.239386 0 0 0 7.423554 3.071816 10.751355 10.751355 0 0 0 7.935524-3.071816 9.471432 9.471432 0 0 0 3.3278-7.679539 25.598464 25.598464 0 0 1 7.67954-18.942864 26.571206 26.571206 0 0 1 37.885726 0 24.932904 24.932904 0 0 1 8.191509 18.942864 10.956143 10.956143 0 0 0 2.559846 7.679539 11.263324 11.263324 0 0 0 7.935524 3.071816 10.700158 10.700158 0 0 0 8.191509-3.583785 10.239386 10.239386 0 0 0 2.559846-7.16757 46.845189 46.845189 0 0 0-14.079155-34.301942 47.305962 47.305962 0 0 0-34.301942-14.079155m-123.640582-87.546748a9.625022 9.625022 0 0 0-7.423554-2.815831H204.806401a11.109733 11.109733 0 0 0-7.679539 2.815831 11.212127 11.212127 0 0 0-2.815832 7.935524A9.369038 9.369038 0 0 0 204.806401 201.239663h539.103654a9.471432 9.471432 0 0 0 7.423554-2.815831 11.109733 11.109733 0 0 0 0-15.871048m60.156391 0a11.109733 11.109733 0 0 0 0 15.871048 9.471432 9.471432 0 0 0 7.423554 2.815831h109.049457a51.196928 51.196928 0 0 1 37.373758 15.359079 49.302642 49.302642 0 0 1 15.103094 36.605803V480.774891a10.853749 10.853749 0 0 0 3.3278 7.935524 9.471432 9.471432 0 0 0 7.423555 2.815831 11.212127 11.212127 0 0 0 7.935524-2.815831 10.853749 10.853749 0 0 0 3.3278-7.935524V252.948561a70.293382 70.293382 0 0 0-21.50271-51.964882 73.109213 73.109213 0 0 0-53.244805-21.246726h-109.049457a9.625022 9.625022 0 0 0-7.423555 2.815831z" fill="#FFFFFF" p-id="3826"></path><path d="M888.285392 495.110031a12.082475 12.082475 0 0 1 3.83977 9.215447 13.055217 13.055217 0 0 0 2.559846 8.191509 12.184869 12.184869 0 0 0 8.191509 2.815831 10.751355 10.751355 0 0 0 7.423554-3.327801 10.546567 10.546567 0 0 0 3.3278-7.679539 34.50673 34.50673 0 0 0-34.557926-34.301942 33.892366 33.892366 0 0 0-24.574526 10.239386 33.124413 33.124413 0 0 0-10.239385 24.318541 11.519309 11.519309 0 0 0 3.071815 8.191508 11.212127 11.212127 0 0 0 7.935524 2.815831 9.471432 9.471432 0 0 0 7.423555-2.815831 11.109733 11.109733 0 0 0 3.3278-8.191508 13.157611 13.157611 0 0 1 3.327801-9.215447 13.515989 13.515989 0 0 1 9.471431-3.583785 12.031278 12.031278 0 0 1 9.471432 3.3278z" fill="#0C508E" p-id="3827"></path><path d="M935.130581 536.579543a58.876467 58.876467 0 0 0-2.047877-15.871048 55.036698 55.036698 0 0 1-14.591124 23.294602 54.729516 54.729516 0 0 1-78.587285 0 52.988821 52.988821 0 0 1-14.33514-23.294602 53.347199 53.347199 0 0 0-2.303862 15.871048 54.268744 54.268744 0 0 0 16.639002 39.933604 55.292682 55.292682 0 0 0 78.587285 0 53.807972 53.807972 0 0 0 16.639001-39.933604m-135.15989-175.093495a73.928364 73.928364 0 0 0 21.50271 42.493451 75.413075 75.413075 0 0 0 127.99232-41.725497 88.519489 88.519489 0 0 1-13.82317 16.894987 84.986901 84.986901 0 0 1-121.592705 0 99.680419 99.680419 0 0 1-14.079155-17.662941z" p-id="3828"></path><path d="M700.136681 297.489888s0.255985 0 0.255985-0.255984a52.886427 52.886427 0 0 0-54.01276-52.988821H183.303691a51.760094 51.760094 0 0 0-38.141712 15.359078 52.937624 52.937624 0 0 0-14.079155 23.550587 40.957543 40.957543 0 0 0 9.471432 14.33514 35.83785 35.83785 0 0 0 26.622403 11.263324h505.82565a37.476151 37.476151 0 0 0 27.134372-11.263324z" fill="#97D5C9" p-id="3829"></path><path d="M700.392666 298.001857v-0.767953s0 0.255985-0.255985 0.255984a37.476151 37.476151 0 0 1-27.134372 11.263324h-505.82565a35.83785 35.83785 0 0 1-26.622403-11.263324 40.957543 40.957543 0 0 1-9.471432-14.33514 59.900406 59.900406 0 0 0-1.791892 14.847109v376.553407A53.296002 53.296002 0 0 0 183.303691 728.056054h463.076215a52.579245 52.579245 0 0 0 38.397696-15.359078 51.862488 51.862488 0 0 0 15.615064-38.141712V298.001857m-118.520889 323.564587a11.6729 11.6729 0 0 0 7.679539-3.83977 16.946183 16.946183 0 0 0 4.095754-7.935524l3.071816-20.478771a16.280623 16.280623 0 0 1 3.83977-7.935524 8.089115 8.089115 0 0 1 6.143631-2.815831 7.935524 7.935524 0 0 1 5.887647 3.3278 12.440854 12.440854 0 0 1 3.583785 7.423555l3.3278 20.478771a11.928884 11.928884 0 0 0 3.583785 7.679539 20.478771 20.478771 0 0 0 8.191509 4.095755l20.478771 3.3278a12.850429 12.850429 0 0 1 7.935524 3.583785 8.037918 8.037918 0 0 1 2.815831 6.143631c0 4.095754-4.198148 7.269964-12.543248 9.471432l-19.966802 1.023939a14.232746 14.232746 0 0 0-7.16757 4.607723 14.898306 14.898306 0 0 0-4.351739 7.16757l-3.3278 22.782633a12.696838 12.696838 0 0 1-2.559846 7.935524 7.986721 7.986721 0 0 1-5.887647 2.559846 9.113053 9.113053 0 0 1-6.143631-2.815831 17.560546 17.560546 0 0 1-3.83977-7.679539l-3.071816-20.478771a10.956143 10.956143 0 0 0-3.839769-7.423555 13.925564 13.925564 0 0 0-7.935524-4.351739l-20.734756-3.3278a13.106414 13.106414 0 0 1-7.679539-3.583785 7.423555 7.423555 0 0 1 0.511969-12.031278 12.184869 12.184869 0 0 1 7.16757-3.583785l20.734756-3.3278M287.233455 315.152828a10.239386 10.239386 0 0 1 7.423555 3.327801 11.263324 11.263324 0 0 1 3.3278 7.679539 11.109733 11.109733 0 0 1-3.3278 7.679539L182.791722 445.704995a10.700158 10.700158 0 0 1-7.423555 3.071816 11.263324 11.263324 0 0 1-7.935524-3.071816 11.416915 11.416915 0 0 1-2.815831-7.679539 10.239386 10.239386 0 0 1 2.815831-7.423555l112.377258-112.121272a10.239386 10.239386 0 0 1 7.423554-3.327801z" fill="#5CBFAB" p-id="3830"></path><path d="M703.720466 248.852806a20.990741 20.990741 0 0 0-3.583785-4.095754 23.601784 23.601784 0 0 0-3.583785-3.3278l3.3278 3.3278c1.177529 1.023939 2.457453 2.559846 3.83977 4.095754z" fill="#00B3F9" p-id="3831"></path><path d="M920.539457 271.891424A64.50813 64.50813 0 1 0 829.408925 363.021956a64.559326 64.559326 0 0 0 91.386516 0 64.252145 64.252145 0 0 0 0-91.130532m-80.123192 12.287263a48.841869 48.841869 0 0 1 68.603884 0 46.845189 46.845189 0 0 1 14.079155 34.301942 10.239386 10.239386 0 0 1-2.559847 7.16757 10.700158 10.700158 0 0 1-8.191508 3.583785 11.263324 11.263324 0 0 1-7.935524-3.071816 10.956143 10.956143 0 0 1-2.559846-7.679539 24.932904 24.932904 0 0 0-8.191509-18.942864 26.571206 26.571206 0 0 0-37.885727 0 25.598464 25.598464 0 0 0-7.679539 18.942864 9.471432 9.471432 0 0 1-3.3278 7.679539 10.751355 10.751355 0 0 1-7.935524 3.071816 10.239386 10.239386 0 0 1-7.423555-3.071816 9.471432 9.471432 0 0 1-3.3278-7.679539 46.742795 46.742795 0 0 1 14.079155-34.301942z" fill="#FBD000" p-id="3832"></path><path d="M411.437203 605.234624l25.086495-137.412556h58.415695l9.113053-49.046657H323.224896l-9.113054 49.046657h57.750135l-25.598464 137.412556h65.17369m308.66628-186.459213h-65.224887l-59.695618 123.589385-11.16093-123.589385h-65.480871l32.970821 186.459213h65.224887z" fill="#FFFFFF" p-id="3833"></path></svg>